<?xml version="1.0" encoding="UTF-8" standalone="no"?>
<svg
   version="1.0"
   width="451.000000pt"
   height="614.000000pt"
   viewBox="0 0 451.000000 614.000000"
   preserveAspectRatio="xMidYMid meet"
   id="svg340"
   sodipodi:docname="GGG.svg"
   inkscape:version="1.2 (dc2aedaf03, 2022-05-15)"
   xmlns:inkscape="http://www.inkscape.org/namespaces/inkscape"
   xmlns:sodipodi="http://sodipodi.sourceforge.net/DTD/sodipodi-0.dtd"
   xmlns="http://www.w3.org/2000/svg"
   xmlns:svg="http://www.w3.org/2000/svg">
  <defs
     id="defs344">
    <clipPath
       clipPathUnits="userSpaceOnUse"
       id="clipPath1116">
      <path
         id="path1118"
         style="fill:#ff0000;fill-opacity:1;fill-rule:nonzero;stroke:none;stroke-width:7.5"
         d="M 85.708005,6140 V 0.00485 H 4510.0049 V 2083.7451 c -52.7415,-97.9756 -182.6737,-66.942 -179.5606,93.5742 0.6562,33.8297 -3.57,67.4878 -4.7168,101.2647 -50.5313,12.3309 -65.2102,66.1635 -69.2724,107.1387 -1.7491,17.6429 3.2065,44.2708 5.7422,61.5966 5.1621,27.3876 10.8628,54.6562 16.9189,81.8409 -12.5518,-1.9914 -28.3752,-0.5835 -54.0381,6.2255 -32.6814,-1.2413 -55.5396,4.5902 -77.2412,22.6905 -13.1381,3.9813 -20.7201,6.1568 -36.2549,10.7812 -11.7374,3.494 -3.8986,22.7646 -2.8711,36.2403 -13.9591,27.8576 -7.8262,65.6102 -3.1201,93.8964 0.06,0.3345 0.159,0.648 0.2198,0.9815 -1.8617,29.1668 -4.0354,58.3041 -6.621,87.4072 -17.3527,-17.8358 -39.7106,-30.5176 -69.6241,-33.5449 -54.9754,-5.5637 -69.6122,17.2973 -102.8466,46.9922 -33.3313,43.3451 -41.3814,96.6734 -47.5342,149.3847 -4.2899,41.7596 -5.4215,83.7424 -6.3135,125.6836 -0.082,4.3843 -0.06,8.7699 -0.132,13.1543 -16.3789,23.2241 -28.6983,49.2585 -38.086,77.2266 -10.1775,35.5261 -13.7637,72.3763 -16.2305,109.1016 -3.1668,36.6235 -1.2912,73.1322 3.3692,109.5117 2.9616,17.2881 7.1203,34.2815 11.704,51.167 -11.0565,55.1431 -19.4739,110.7874 -26.1768,166.6552 -1.9254,17.1563 -2.4027,34.4206 -3.75,51.6211 -10.8873,9.5654 -21.6571,19.2807 -32.4315,28.96 -13.882,12.4711 -27.3078,25.3595 -40.7667,38.2178 -22.3347,-6.3248 -44.2551,-14.987 -67.3242,-17.168 -11.3793,-1.0758 -15.8031,16.5536 -22.9687,25.459 -5.9369,7.3783 -10.7357,15.5988 -16.2597,23.291 -18.0507,25.1348 -36.2318,49.9467 -53.5988,75.5859 -0.138,0.186 -0.1995,0.4147 -0.3367,0.6007 -0.9934,1.3073 -1.9362,2.6634 -2.9736,3.9258 -26.2551,31.9482 -52.4709,63.9303 -78.5889,95.9913 -25.4877,32.0828 -80.2178,99.0224 -80.0098,99.3164 0.3015,0.4267 0.3743,0.5422 0.6743,0.9667 -12.3653,16.0476 -3.8023,25.8186 29.9267,45 -12.0849,24.8952 -26.4971,48.7445 -34.7168,75.5714 -12.4689,44.9658 -17.1741,91.4733 -20.7129,137.8417 0.1687,34.4339 -1.5592,70.7721 9.4483,104.0187 3.4179,10.3233 8.1721,20.1576 12.2607,30.2343 8.4508,14.753 18.4262,27.8271 29.6192,39.1407 -2.7405,28.5419 -1.2436,57.8423 0.366,85.166 2.517,15.5659 4.1538,31.3032 7.5585,46.6992 10.5675,47.7828 28.7213,95.8023 54.2579,138.7939 -5.4474,36.2628 -11.9612,72.3305 -21.0791,107.9444 -4.9005,34.7341 -10.0443,51.4408 -1.5381,88.2861 3.8196,16.5444 10.5777,31.9402 19.3506,45.9667 -5.727,77.931 -4.9096,165.8463 -4.3213,200.8008 2.8236,167.813 22.5078,333.4293 44.3994,499.5411 0.4125,3.6966 1.1095,7.3526 1.5526,11.0448 -1.6884,71.3315 -1.2597,142.7048 3.5451,214.3361 1.4789,22.0419 14.2187,160.871 28.8132,191.1326 8.5162,17.6572 20.0137,33.5417 32.2266,48.999 z m 3664.072295,0 c 9.6143,-4.7288 18.9959,-9.8519 27.8467,-15.8643 1.1534,5.277 2.1289,10.5912 3.2959,15.8643 z m -160.6641,-62.124 c 1.3309,-0.8188 2.6679,-1.6279 3.999,-2.4463 0,0.1269 0.015,0.254 0.015,0.3808 -0.03,1.5057 -5.2964,2.8546 -4.0137,2.0655 z m 359.0772,-3158.0713 c -1.1539,-2.0818 -2.1412,-4.3331 -3.2227,-6.3867 -0.9069,-1.7229 -2.4626,-7.2696 -1.333,-5.6836 1.8833,2.6439 2.4696,6.0073 3.7061,9.0088 0.2858,1.0196 0.5655,2.0414 0.8496,3.0615 z" />
    </clipPath>
  </defs>
  <sodipodi:namedview
     id="namedview342"
     pagecolor="#ffffff"
     bordercolor="#000000"
     borderopacity="0.25"
     inkscape:showpageshadow="2"
     inkscape:pageopacity="0.0"
     inkscape:pagecheckerboard="0"
     inkscape:deskcolor="#d1d1d1"
     inkscape:document-units="pt"
     showgrid="false"
     inkscape:zoom="0.67025431"
     inkscape:cx="165.60878"
     inkscape:cy="375.23071"
     inkscape:window-width="1920"
     inkscape:window-height="974"
     inkscape:window-x="-11"
     inkscape:window-y="-11"
     inkscape:window-maximized="1"
     inkscape:current-layer="svg340" />
  <g
     transform="translate(0.000000,614.000000) scale(0.100000,-0.100000)"
     fill="#000000"
     stroke="none"
     id="g338"
     clip-path="url(#clipPath1116)">
    <path
       d="M3730 6127 c0 -7 5 -18 12 -25 9 -9 8 -12 -5 -12 -21 0 -22 -23 -2 -40 17 -14 21 -60 5 -60 -5 0 -10 -9 -10 -20 0 -11 -4 -20 -10 -20 -5 0 -7 -6 -4 -14 3 -9 12 -12 21 -9 11 4 14 2 11 -8 -5 -15 -5 -15 -70 -19 -32 -2 -36 -4 -16 -7 18 -3 25 -9 21 -19 -11 -28 43 -16 70 17 14 17 27 27 30 22 6 -10 -24 -48 -43 -55 -11 -3 -9 -9 8 -26 21 -21 21 -22 2 -22 -11 0 -20 -4 -20 -9 0 -5 -8 -11 -17 -13 -12 -2 -17 -15 -18 -48 -1 -25 -5 -53 -10 -62 -5 -14 -2 -18 14 -18 15 0 21 -6 21 -22 -1 -21 -2 -22 -14 -5 -15 19 -32 22 -41 6 -4 -6 1 -16 11 -24 15 -11 16 -15 5 -29 -11 -13 -11 -19 0 -32 11 -14 10 -20 -14 -40 -28 -24 -28 -24 -5 -24 13 0 30 -4 37 -9 12 -8 9 -11 -12 -16 -17 -5 -33 -2 -42 5 -8 7 -15 8 -15 2 0 -19 30 -34 60 -30 24 4 30 1 28 -11 -2 -10 -14 -16 -31 -16 -14 0 -26 -4 -26 -10 0 -5 9 -9 20 -8 10 2 19 -2 19 -7 0 -6 -12 -10 -27 -10 l-28 -1 30 -13 c24 -10 26 -13 12 -19 -9 -3 -17 -13 -17 -22 0 -18 -30 -21 -31 -2 -1 6 -4 1 -8 -13 -9 -28 -4 -41 7 -23 11 17 49 5 55 -17 6 -23 -23 -52 -42 -41 -9 6 -7 10 8 14 14 3 19 10 15 21 -11 28 -44 -4 -44 -42 0 -23 4 -31 12 -26 7 4 2 -7 -11 -24 -12 -18 -19 -32 -14 -32 4 0 -1 -7 -11 -15 -19 -15 -19 -15 5 -16 13 0 18 -3 12 -6 -7 -2 -13 -13 -13 -23 0 -31 -11 -50 -30 -50 -11 0 -21 -4 -24 -9 -3 -4 17 -4 45 1 28 5 54 7 57 4 3 -3 -4 -6 -16 -6 -13 0 -22 -6 -22 -15 0 -9 -10 -15 -26 -15 -30 0 -28 -23 2 -28 29 -6 42 -22 16 -22 -23 0 -39 -37 -29 -64 3 -8 1 -17 -6 -20 -7 -2 -2 -8 11 -11 27 -9 29 -35 2 -35 -11 0 -20 -4 -20 -10 0 -5 -7 -10 -16 -10 -8 0 -12 -5 -8 -11 4 -7 22 -9 48 -5 36 5 39 4 24 -8 -10 -7 -18 -20 -18 -29 0 -8 -7 -18 -16 -21 -20 -8 -9 -26 17 -26 10 0 19 -5 19 -10 0 -6 -10 -8 -24 -4 -13 3 -27 1 -30 -5 -5 -7 6 -11 29 -11 23 0 34 -4 30 -10 -4 -6 -15 -8 -25 -5 -10 3 -21 1 -25 -5 -4 -6 5 -10 22 -10 22 0 25 -2 13 -10 -13 -9 -13 -11 0 -19 12 -9 12 -11 -3 -17 -9 -3 -14 -10 -11 -15 3 -5 -1 -12 -10 -15 -8 -3 -12 -12 -9 -20 3 -8 0 -14 -7 -14 -6 0 -8 -5 -4 -12 5 -8 13 -5 25 10 9 12 23 22 30 22 7 0 4 -9 -9 -23 l-22 -23 21 -22 c11 -12 17 -27 14 -32 -8 -13 4 -72 14 -66 4 3 7 -3 7 -13 0 -12 -6 -17 -18 -13 -10 2 -18 11 -18 18 0 8 -4 14 -9 14 -5 0 -7 18 -4 40 4 26 2 40 -6 40 -16 0 -13 -63 5 -110 18 -46 12 -64 -12 -34 -15 18 -15 18 -11 -3 3 -12 0 -24 -7 -27 -6 -3 8 -2 32 1 34 5 42 3 42 -11 0 -9 -6 -16 -12 -16 -9 0 -9 -3 1 -9 13 -8 13 -12 0 -27 -12 -16 -12 -17 4 -11 13 5 17 1 17 -14 0 -11 5 -29 10 -39 7 -13 7 -21 0 -25 -17 -11 -11 -25 11 -25 15 0 19 5 15 15 -3 9 0 15 10 15 8 0 12 -4 9 -10 -3 -5 -1 -10 4 -10 6 0 11 -5 11 -10 0 -6 -6 -10 -12 -9 -7 1 -20 0 -28 -4 -8 -3 -22 -8 -30 -10 -8 -3 1 -6 20 -6 26 -1 31 -4 22 -13 -16 -16 -15 -38 2 -38 14 0 29 -34 27 -62 -3 -22 17 -32 34 -18 9 7 15 8 15 2 0 -5 -7 -13 -16 -16 -14 -5 -13 -10 10 -31 14 -13 26 -29 26 -36 0 -7 -9 -2 -20 11 -11 13 -20 19 -20 13 0 -5 12 -20 27 -34 14 -13 24 -19 20 -14 -3 6 -2 17 3 24 6 10 9 8 15 -8 3 -11 13 -21 21 -21 8 0 14 -4 14 -10 0 -5 7 -10 15 -10 9 0 12 -6 8 -15 -3 -10 0 -15 8 -13 9 2 13 -4 11 -15 -3 -15 1 -18 20 -12 20 5 21 4 5 -5 -20 -13 -14 -32 8 -23 11 3 15 -2 16 -18 1 -13 2 -31 3 -39 2 -8 3 -34 4 -58 1 -24 6 -41 11 -37 5 3 12 1 16 -5 3 -5 2 -10 -3 -10 -5 0 -6 -17 -2 -39 4 -25 3 -44 -3 -50 -8 -8 -8 -11 0 -11 14 0 15 -73 1 -81 -6 -4 -1 -10 11 -14 14 -4 20 -12 17 -21 -8 -20 19 -18 40 4 17 16 18 16 11 -1 -4 -10 -7 -21 -7 -23 0 -2 -10 -5 -22 -5 -15 -1 -10 -4 12 -8 35 -7 35 -7 -20 -18 -43 -8 -48 -11 -22 -12 36 -1 45 -20 10 -22 -17 -1 -19 -2 -5 -6 16 -4 22 -16 18 -36 -1 -5 8 -11 19 -14 11 -3 20 -11 20 -18 0 -8 10 -16 23 -18 19 -4 18 -4 -5 -6 -20 -1 -28 4 -28 17 0 12 -4 10 -13 -8 -11 -22 -11 -26 5 -32 10 -4 18 -12 18 -18 0 -6 -4 -8 -10 -5 -5 3 -10 -1 -10 -11 0 -12 7 -15 30 -12 23 4 30 1 28 -11 -2 -10 4 -15 15 -15 9 1 17 -2 17 -7 0 -5 -12 -9 -27 -9 -14 0 -23 -3 -19 -7 4 -5 12 -8 17 -8 5 0 9 -4 8 -10 0 -5 -8 -9 -17 -7 -9 1 -5 -5 10 -13 24 -14 26 -18 16 -35 -10 -15 -10 -22 0 -32 9 -9 12 -8 12 5 0 9 5 17 10 17 15 0 8 -33 -10 -47 -8 -6 -12 -15 -7 -19 4 -4 7 -2 7 4 0 21 36 13 60 -13 13 -14 31 -25 39 -26 9 0 0 -7 -19 -14 -19 -7 -27 -14 -17 -14 19 -1 24 -21 5 -21 -9 0 -8 -4 2 -10 12 -8 13 -12 2 -19 -11 -7 -10 -9 3 -14 9 -4 18 -1 21 8 4 8 13 15 21 15 10 0 13 -6 9 -16 -5 -14 -1 -15 31 -9 31 5 36 4 25 -6 -7 -8 -30 -12 -58 -10 -31 2 -44 -1 -40 -8 4 -6 23 -11 43 -11 29 0 33 -2 24 -14 -7 -9 -8 -17 -2 -20 5 -3 12 0 15 6 3 7 3 1 -1 -15 -4 -23 -2 -26 12 -21 14 6 16 2 13 -22 -1 -16 -9 -36 -17 -44 -11 -12 -11 -15 0 -19 7 -2 15 1 17 8 2 6 8 11 13 11 14 0 11 -28 -3 -33 -10 -4 -10 -7 -1 -17 10 -11 14 -10 19 3 3 10 17 17 32 17 21 0 25 -15 4 -15 -4 0 -20 -13 -37 -29 -29 -28 -29 -29 -6 -23 18 4 30 0 43 -15 10 -12 18 -25 18 -30 0 -14 -19 -9 -29 9 -5 10 -13 14 -18 9 -4 -5 -2 -11 5 -13 6 -3 10 -9 6 -14 -5 -9 15 -13 46 -10 13 1 13 0 0 -11 -19 -16 -19 -50 -1 -56 10 -3 12 1 8 17 -3 14 0 21 8 21 8 0 16 8 19 18 3 9 3 0 0 -20 -4 -31 -2 -38 12 -38 10 0 14 -3 11 -6 -3 -4 -2 -15 4 -25 8 -16 6 -19 -11 -19 -11 0 -20 -4 -20 -9 0 -5 -6 -12 -12 -14 -7 -2 -1 -3 15 -1 28 4 40 -19 15 -29 -10 -4 -10 -6 0 -6 6 -1 12 -10 12 -21 0 -28 36 -26 44 3 3 12 6 892 6 1955 l0 1932 -338 0 c-257 0 -341 -3 -351 -12 -11 -10 -14 -10 -18 0 -3 6 -9 12 -15 12 -7 0 -7 -5 1 -13 12 -15 5 -27 -16 -27 -7 0 -13 9 -13 20 0 11 -7 20 -15 20 -8 0 -15 -6 -15 -13z m78 -49 c7 -9 6 -17 -3 -25 -9 -8 -16 -9 -20 -3 -3 6 0 10 7 10 8 1 6 6 -6 15 -16 12 -17 15 -4 15 8 0 20 -6 26 -12z m5 -104 c-3 -9 -13 -12 -25 -8 -17 5 -19 3 -13 -15 3 -12 2 -21 -4 -21 -9 0 -27 39 -19 43 1 1 12 7 23 13 25 14 46 7 38 -12z m-13 -99 c-6 -16 -9 -34 -6 -42 3 -7 1 -13 -5 -13 -14 0 -24 31 -12 39 6 3 14 16 18 29 4 13 9 22 11 19 3 -2 0 -17 -6 -32z m-70 15 c0 -5 -5 -10 -11 -10 -5 0 -7 5 -4 10 3 6 8 10 11 10 2 0 4 -4 4 -10z m-3 -202 c-3 -7 -5 -2 -5 12 0 14 2 19 5 13 2 -7 2 -19 0 -25z m3 -117 c0 -6 -4 -13 -10 -16 -5 -3 -10 1 -10 9 0 9 5 16 10 16 6 0 10 -4 10 -9z m-25 -260 c-9 -16 -25 -3 -18 15 4 10 9 12 15 6 6 -6 7 -15 3 -21z m2 -127 c-3 -3 -12 -4 -19 -1 -8 3 -5 6 6 6 11 1 17 -2 13 -5z m-37 -44 c0 -16 -4 -30 -10 -30 -5 0 -10 7 -10 16 0 8 -4 12 -10 9 -11 -7 -14 18 -3 28 16 17 33 5 33 -23z m14 -61 c-7 -11 -34 -12 -34 -1 0 14 11 21 26 15 8 -3 11 -9 8 -14z m13 -25 c-3 -3 -12 -4 -19 -1 -8 3 -5 6 6 6 11 1 17 -2 13 -5z m-30 -50 c-3 -3 -12 -4 -19 -1 -8 3 -5 6 6 6 11 1 17 -2 13 -5z m23 -58 c0 -7 -40 -14 -44 -7 -3 4 6 8 20 9 13 1 24 0 24 -2z m-32 -39 c10 4 13 2 10 -8 -3 -8 -11 -13 -18 -11 -9 2 -11 -6 -7 -25 4 -15 4 -22 1 -15 -3 6 -12 12 -20 12 -8 0 -14 10 -14 23 0 28 10 41 23 28 5 -5 16 -7 25 -4z m-8 -207 c18 -12 2 -12 -25 0 -13 6 -15 9 -5 9 8 0 22 -4 30 -9z m20 -120 c0 -5 -4 -10 -10 -10 -5 0 -10 5 -10 10 0 6 5 10 10 10 6 0 10 -4 10 -10z m67 -62 c-3 -8 -6 -5 -6 6 -1 11 2 17 5 13 3 -3 4 -12 1 -19z m-97 -38 c0 -5 -2 -10 -4 -10 -3 0 -8 5 -11 10 -3 6 -1 10 4 10 6 0 11 -4 11 -10z m21 -168 c-7 -2 -18 1 -23 6 -8 8 -4 9 13 5 13 -4 18 -8 10 -11z m39 -101 c0 -6 -4 -13 -10 -16 -5 -3 -10 1 -10 9 0 9 5 16 10 16 6 0 10 -4 10 -9z m60 -155 c0 -11 -19 -15 -25 -6 -3 5 1 10 9 10 9 0 16 -2 16 -4z m272 -678 c-12 -12 -35 -1 -27 12 3 5 13 6 21 3 10 -4 12 -9 6 -15z m8 -134 c0 -8 -5 -12 -10 -9 -6 4 -8 11 -5 16 9 14 15 11 15 -7z m44 -5 c-3 -5 -10 -7 -15 -3 -5 3 -7 10 -3 15 3 5 10 7 15 3 5 -3 7 -10 3 -15z m66 -233 c0 -3 -4 -8 -10 -11 -5 -3 -10 -1 -10 4 0 6 5 11 10 11 6 0 10 -2 10 -4z m50 -26 c0 -5 -5 -10 -11 -10 -5 0 -7 5 -4 10 3 6 8 10 11 10 2 0 4 -4 4 -10z m-10 -40 c-20 -13 -33 -13 -25 0 3 6 14 10 23 10 15 0 15 -2 2 -10z m27 -36 c-3 -3 -12 -4 -19 -1 -8 3 -5 6 6 6 11 1 17 -2 13 -5z m131 -239 c1 -20 4 -40 7 -45 3 -6 -1 -7 -9 -4 -11 4 -16 19 -16 45 0 49 16 52 18 4z m60 -180 c-3 -3 -9 2 -12 12 -6 14 -5 15 5 6 7 -7 10 -15 7 -18z"
       id="path174" />
    <path
       d="M3670 6070 c0 -5 5 -10 10 -10 6 0 10 5 10 10 0 6 -4 10 -10 10 -5 0 -10 -4 -10 -10z"
       id="path176" />
    <path
       d="M3684 6005 c-4 -11 -12 -23 -18 -27 -6 -4 -7 -11 -2 -15 5 -4 11 -2 13 5 3 6 11 12 19 12 16 0 18 9 4 30 -7 12 -10 11 -16 -5z"
       id="path178" />
    <path
       d="M2475 5853 c-11 -2 -29 -8 -40 -12 -11 -5 -33 -12 -50 -17 -39 -12 -35 -28 10 -34 20 -3 37 -9 38 -15 1 -5 15 -9 31 -7 34 4 32 -17 -3 -29 -14 -6 -20 -5 -16 1 3 6 2 10 -4 10 -5 0 -13 -9 -16 -20 -4 -13 -21 -24 -51 -31 -56 -14 -67 -30 -17 -23 l38 6 -27 -25 c-23 -22 -25 -26 -11 -32 24 -9 203 32 203 46 0 15 47 21 69 9 13 -6 21 -21 21 -35 0 -14 5 -25 11 -25 6 0 8 -9 4 -21 -5 -15 -4 -19 4 -15 6 4 11 2 11 -5 0 -10 3 -10 12 -1 21 21 42 13 82 -33 21 -25 45 -45 52 -45 10 0 14 -13 14 -39 0 -54 27 -193 45 -228 8 -17 21 -59 29 -94 l14 -64 3 75 c1 41 4 86 5 100 1 14 2 34 3 45 1 15 4 16 13 7 7 -7 20 -12 29 -12 10 0 20 -6 23 -12 3 -7 4 12 2 43 -4 63 -19 99 -41 99 -8 0 -15 7 -15 16 0 9 -13 21 -29 27 -17 6 -32 21 -36 34 -3 13 -10 23 -15 23 -6 0 -10 5 -10 10 0 11 -9 24 -42 60 -9 10 -19 28 -23 40 -10 33 -46 90 -55 90 -5 0 -11 8 -15 19 -3 10 -36 36 -73 57 -107 63 -124 69 -177 57z m225 -238 c-7 -9 -15 -13 -17 -11 -7 7 7 26 19 26 6 0 6 -6 -2 -15z"
       id="path180" />
    <path
       d="M3655 5840 c-3 -5 1 -10 9 -10 9 0 16 5 16 10 0 6 -4 10 -9 10 -6 0 -13 -4 -16 -10z"
       id="path182" />
    <path
       d="M3701 5831 c-15 -27 -14 -30 9 -24 21 6 27 28 11 38 -6 3 -15 -3 -20 -14z"
       id="path184" />
    <path
       d="M1981 5709 c-13 -11 -21 -23 -17 -26 4 -4 16 3 28 15 28 28 20 36 -11 11z"
       id="path186" />
    <path
       d="M2020 5695 c-7 -8 -17 -15 -23 -15 -6 0 -23 -12 -38 -26 -15 -14 -39 -27 -53 -28 -14 0 -26 -4 -26 -7 0 -3 -11 -4 -25 -1 -15 2 -25 0 -25 -7 0 -13 -36 -51 -49 -51 -13 0 -47 -61 -54 -96 -3 -16 -15 -58 -28 -93 -19 -56 -21 -73 -13 -140 9 -78 27 -101 32 -43 3 33 22 42 39 20 6 -7 13 -40 16 -73 7 -65 35 -135 47 -116 9 16 149 14 280 -4 32 -4 41 -3 30 4 -24 17 -2 29 100 54 l95 24 3 44 c2 38 -1 48 -26 73 -25 23 -38 28 -83 28 -30 0 -74 -7 -99 -16 -25 -9 -57 -16 -72 -16 -27 0 -88 -29 -88 -42 0 -5 -9 -8 -19 -8 -15 0 -23 13 -35 53 -20 69 -28 154 -16 162 6 3 10 15 10 26 0 10 6 19 13 19 16 0 77 57 77 73 0 7 10 23 21 37 14 16 19 19 15 8 -7 -23 0 -23 26 2 12 11 32 19 45 18 18 -2 23 -8 23 -31 0 -18 4 -26 11 -21 6 3 24 -3 40 -15 36 -26 39 -26 39 2 0 26 26 67 43 67 19 1 54 33 62 58 5 18 3 22 -17 22 -13 0 -30 -4 -38 -10 -9 -5 -19 -5 -26 1 -7 5 -16 9 -20 8 -7 -2 -58 18 -73 28 -2 1 2 9 9 18 10 12 10 15 -3 15 -8 0 -20 -7 -27 -15 -13 -16 -40 -21 -40 -7 0 4 5 13 12 20 9 9 4 12 -24 12 -19 0 -41 -7 -48 -15z m138 -526 c-2 -6 -29 -19 -61 -29 -47 -15 -55 -15 -49 -3 18 32 120 61 110 32z m-27 -92 c-1 -12 -15 -9 -19 4 -3 6 1 10 8 8 6 -3 11 -8 11 -12z"
       id="path188" />
    <path
       d="M3631 5694 c0 -11 3 -14 6 -6 3 7 2 16 -1 19 -3 4 -6 -2 -5 -13z"
       id="path190" />
    <path
       d="M1920 5665 c-7 -8 -8 -15 -2 -15 5 0 15 7 22 15 7 8 8 15 2 15 -5 0 -15 -7 -22 -15z"
       id="path192" />
    <path
       d="M1869 5648 c-12 -23 -12 -23 10 -4 23 21 26 26 11 26 -5 0 -15 -10 -21 -22z"
       id="path194" />
    <path
       d="M3641 5564 c0 -11 3 -14 6 -6 3 7 2 16 -1 19 -3 4 -6 -2 -5 -13z"
       id="path196" />
    <path
       d="M3610 5515 c0 -9 5 -15 11 -13 6 2 11 8 11 13 0 5 -5 11 -11 13 -6 2 -11 -4 -11 -13z"
       id="path198" />
    <path
       d="M3587 5473 c-4 -3 -7 -11 -7 -17 0 -6 5 -5 12 2 6 6 9 14 7 17 -3 3 -9 2 -12 -2z"
       id="path200" />
    <path
       d="M3610 5424 c0 -1 6 -7 14 -13 10 -9 15 -8 19 2 3 8 -3 13 -14 13 -11 0 -19 -1 -19 -2z"
       id="path202" />
    <path
       d="M3629 5385 c-1 -3 -2 -8 -3 -12 -1 -5 -5 -14 -9 -20 -6 -9 -2 -13 11 -13 15 0 18 5 14 25 -4 23 -10 32 -13 20z"
       id="path204" />
    <path
       d="M2541 5269 c-74 -16 -106 -54 -99 -119 3 -31 5 -32 48 -35 33 -1 50 3 63 16 23 24 30 24 42 -3 6 -14 24 -26 45 -31 49 -12 59 -11 114 9 47 17 48 18 42 52 -8 49 -30 69 -105 93 -80 24 -106 27 -150 18z m178 -75 c15 -15 14 -16 -4 -9 -11 4 -39 10 -63 12 -23 3 -45 10 -49 16 -11 17 99 -1 116 -19z m-86 -11 c-7 -2 -19 -2 -25 0 -7 3 -2 5 12 5 14 0 19 -2 13 -5z"
       id="path206" />
    <path
       d="M3002 5235 c0 -16 2 -22 5 -12 2 9 2 23 0 30 -3 6 -5 -1 -5 -18z"
       id="path208" />
    <path
       d="M3590 5234 c0 -8 5 -12 10 -9 6 3 10 10 10 16 0 5 -4 9 -10 9 -5 0 -10 -7 -10 -16z"
       id="path210" />
    <path
       d="M3556 5203 c-6 -14 -5 -15 5 -6 7 7 10 15 7 18 -3 3 -9 -2 -12 -12z"
       id="path212" />
    <path
       d="M3590 5186 c0 -9 5 -16 10 -16 6 0 10 4 10 9 0 6 -4 13 -10 16 -5 3 -10 -1 -10 -9z"
       id="path214" />
    <path
       d="M3570 5150 c0 -5 4 -10 9 -10 6 0 13 5 16 10 3 6 -1 10 -9 10 -9 0 -16 -4 -16 -10z"
       id="path216" />
    <path
       d="M2971 5134 c0 -11 3 -14 6 -6 3 7 2 16 -1 19 -3 4 -6 -2 -5 -13z"
       id="path218" />
    <path
       d="M2952 5033 c-19 -36 -23 -79 -16 -152 6 -66 8 -72 20 -56 8 10 17 34 20 53 7 38 28 51 54 34 15 -9 21 -7 35 14 18 28 14 53 -15 79 -18 16 -20 16 -51 -6 l-32 -22 7 36 c7 39 -6 51 -22 20z"
       id="path220" />
    <path
       d="M1697 4922 c-10 -10 -17 -23 -17 -28 0 -5 5 -2 10 6 7 10 10 11 10 2 0 -7 -5 -20 -11 -30 -26 -42 23 -179 55 -153 8 7 24 5 50 -7 l37 -17 -6 -57 c-6 -49 -5 -58 9 -58 14 0 20 12 17 33 0 4 3 7 8 7 6 0 6 13 0 33 -24 75 -38 145 -39 184 0 23 -4 45 -10 48 -5 3 -10 14 -10 25 0 34 -76 42 -103 12z m83 -157 c0 -16 -6 -25 -15 -25 -8 0 -15 5 -15 10 0 6 5 10 11 10 6 0 9 7 5 15 -3 8 -1 15 4 15 6 0 10 -11 10 -25z"
       id="path222" />
    <path
       d="M2328 4847 c-7 -8 -23 -19 -35 -26 -18 -9 -21 -17 -17 -44 8 -44 34 -63 96 -70 43 -5 62 -3 93 13 22 11 45 20 52 20 14 0 33 39 33 66 0 8 -13 20 -30 25 -16 6 -30 15 -30 20 0 16 -25 10 -48 -11 -12 -11 -25 -20 -30 -20 -5 0 -17 9 -27 20 -21 23 -38 25 -57 7z"
       id="path224" />
    <path
       d="M1958 4818 c-3 -43 -8 -193 -8 -230 1 -76 41 -148 137 -247 24 -24 43 -47 43 -52 0 -4 -22 4 -50 19 -27 14 -52 23 -56 20 -12 -13 57 -347 86 -416 8 -18 6 -24 -7 -29 -18 -7 -60 38 -65 70 -3 17 -7 16 -42 -12 -21 -17 -45 -31 -52 -31 -18 0 -54 -36 -54 -54 0 -8 16 -32 35 -53 19 -21 35 -44 35 -50 0 -13 16 -17 56 -14 12 1 24 -5 27 -13 4 -9 14 -16 24 -17 35 -1 78 -36 99 -78 18 -40 47 -71 65 -71 3 0 6 28 5 63 -1 69 5 127 14 127 7 0 50 -124 50 -144 0 -27 18 -27 32 1 18 37 36 39 50 6 7 -15 18 -34 25 -41 7 -7 13 -28 13 -46 0 -42 24 -66 46 -45 17 18 34 113 27 150 -4 21 5 34 52 77 35 32 72 56 97 63 69 18 118 55 118 88 0 17 -6 21 -31 21 -17 0 -28 4 -24 10 4 6 -6 10 -22 11 -15 0 -22 3 -15 6 6 2 12 11 12 18 0 7 -6 15 -12 18 -10 3 -10 7 -2 18 6 8 17 32 23 54 24 79 43 105 76 105 16 0 40 3 53 6 18 5 22 2 22 -15 0 -12 6 -21 15 -21 8 0 15 -9 15 -20 0 -11 5 -20 10 -20 6 0 10 -9 10 -21 0 -34 19 -11 35 44 15 50 15 52 -5 66 -11 7 -21 23 -21 35 -1 17 -2 18 -6 3 -2 -9 -9 -15 -14 -12 -5 4 -9 -3 -9 -14 0 -11 -4 -23 -10 -26 -6 -4 -10 10 -10 35 0 25 4 39 10 35 6 -4 10 6 10 22 0 22 2 25 11 13 7 -11 9 2 5 45 -8 75 -7 164 1 190 l6 20 -23 -20 -22 -20 7 44 c5 32 4 42 -5 36 -16 -10 -70 14 -70 31 0 17 -47 9 -66 -10 -16 -15 -34 -73 -34 -107 0 -59 -49 -109 -106 -109 -14 0 -42 -9 -64 -20 -47 -24 -56 -24 -95 -4 -16 8 -56 16 -88 18 -63 3 -71 8 -81 49 -6 27 -6 27 47 27 29 0 77 6 107 14 30 8 89 20 130 26 41 7 83 20 93 28 15 14 16 17 2 32 -8 9 -15 22 -15 29 0 12 -36 9 -110 -10 -59 -15 -123 -10 -150 11 -33 25 -21 36 54 49 82 15 126 14 161 -5 27 -14 100 -22 110 -13 1 2 5 13 7 23 4 28 -31 42 -133 55 -134 17 -183 14 -239 -14 -27 -14 -56 -25 -65 -25 -8 0 -33 -11 -54 -25 -46 -28 -44 -30 -91 70 -32 68 -61 115 -88 143 -6 7 -17 22 -22 33 -14 26 -30 24 -32 -3z m259 -320 c14 -16 11 -38 -5 -38 -4 0 -15 13 -24 28 -13 22 -15 31 -5 41 9 9 13 9 16 -1 2 -7 10 -21 18 -30z m623 -343 c0 -9 -9 -15 -22 -15 -22 1 -23 1 -4 15 25 19 26 19 26 0z"
       id="path226" />
    <path
       d="M2783 4765 c-6 -7 -15 -29 -18 -49 -6 -28 -4 -36 8 -36 10 0 17 15 22 46 7 51 5 58 -12 39z"
       id="path228" />
    <path
       d="M3005 4759 c-4 -6 -5 -13 -2 -16 7 -7 27 6 27 18 0 12 -17 12 -25 -2z"
       id="path230" />
    <path
       d="M3510 4750 c0 -5 5 -10 11 -10 5 0 7 5 4 10 -3 6 -8 10 -11 10 -2 0 -4 -4 -4 -10z"
       id="path232" />
    <path
       d="M3535 4720 c-3 -5 -1 -10 4 -10 6 0 11 5 11 10 0 6 -2 10 -4 10 -3 0 -8 -4 -11 -10z"
       id="path234" />
    <path
       d="M1760 4701 c0 -7 -5 -9 -11 -5 -7 4 -4 -7 7 -25 24 -40 36 -40 22 2 -13 37 -18 45 -18 28z"
       id="path236" />
    <path
       d="M3550 4625 c0 -8 4 -15 10 -15 5 0 7 7 4 15 -4 8 -8 15 -10 15 -2 0 -4 -7 -4 -15z"
       id="path238" />
    <path
       d="M3550 4593 c0 -15 18 -35 23 -27 3 5 -1 15 -9 22 -8 7 -14 9 -14 5z"
       id="path240" />
    <path
       d="M3540 4485 c0 -8 5 -15 10 -15 6 0 10 7 10 15 0 8 -4 15 -10 15 -5 0 -10 -7 -10 -15z"
       id="path242" />
    <path
       d="M3506 4285 c4 -8 8 -15 10 -15 2 0 4 7 4 15 0 8 -4 15 -10 15 -5 0 -7 -7 -4 -15z"
       id="path244" />
    <path
       d="M3622 4170 c-10 -17 -10 -20 3 -20 8 0 15 9 15 20 0 11 -1 20 -3 20 -1 0 -8 -9 -15 -20z"
       id="path246" />
    <path
       d="M3685 3980 c3 -5 0 -10 -7 -10 -7 0 -5 -5 6 -11 15 -9 16 -13 5 -20 -8 -5 -9 -9 -4 -9 20 0 38 17 26 25 -9 5 -9 10 0 21 9 11 7 14 -10 14 -12 0 -19 -4 -16 -10z"
       id="path248" />
    <path
       d="M3622 3580 c-48 -46 -77 -82 -87 -109 -14 -40 -14 -42 15 -71 15 -16 31 -38 35 -49 8 -27 31 -33 69 -17 48 20 61 60 61 195 0 68 -4 115 -10 117 -5 2 -43 -28 -83 -66z"
       id="path250" />
    <path
       d="M2907 3599 c-43 -25 -81 -171 -63 -243 8 -34 19 -33 87 11 110 72 118 129 31 219 -26 27 -30 28 -55 13z"
       id="path252" />
    <path
       d="M1375 3350 c-3 -5 -19 -10 -35 -10 -23 0 -39 -12 -77 -56 -26 -31 -56 -59 -66 -63 -15 -6 -10 -12 27 -38 26 -18 48 -43 52 -58 7 -30 22 -31 73 -6 63 33 190 61 263 58 50 -1 71 2 83 14 14 14 14 17 -2 31 -10 9 -27 18 -38 20 -11 1 -25 10 -32 18 -9 10 -12 11 -13 3 0 -8 -13 -13 -31 -13 -16 0 -28 4 -25 9 8 12 -56 49 -100 57 -24 4 -38 13 -41 25 -6 20 -28 25 -38 9z"
       id="path254" />
    <path
       d="M3951 3225 c0 -11 4 -27 9 -35 9 -13 10 -13 9 0 0 8 -4 24 -9 35 l-9 20 0 -20z"
       id="path256" />
    <path
       d="M2225 3219 c-4 -5 -12 -8 -18 -6 -7 2 -34 -8 -62 -22 -27 -14 -59 -29 -70 -32 -28 -9 44 -23 89 -17 25 3 38 -1 48 -14 20 -28 66 -23 78 8 18 45 12 74 -16 84 -32 13 -41 13 -49 -1z"
       id="path258" />
    <path
       d="M3995 3190 c3 -5 10 -10 16 -10 5 0 9 5 9 10 0 6 -7 10 -16 10 -8 0 -12 -4 -9 -10z"
       id="path260" />
    <path
       d="M1765 3181 c-11 -5 -26 -6 -32 -4 -7 3 -13 0 -13 -7 0 -7 -15 -29 -34 -50 -18 -20 -35 -41 -37 -46 -9 -20 -73 -65 -85 -60 -7 3 -20 -5 -29 -17 -13 -19 -13 -22 0 -30 24 -13 17 -30 -11 -24 -21 4 -31 -4 -66 -50 -22 -29 -39 -55 -37 -58 5 -5 55 -13 87 -14 15 -1 22 -7 22 -21 0 -22 -23 -25 -118 -13 l-53 6 7 65 c6 55 14 76 50 129 24 35 39 63 35 63 -9 0 -53 -47 -84 -90 -17 -25 -17 -25 -2 7 21 45 20 77 -2 68 -10 -3 -30 -9 -45 -12 -16 -3 -28 -9 -28 -13 0 -5 -16 -14 -36 -20 -19 -7 -40 -21 -47 -31 -7 -11 -37 -32 -67 -46 -30 -15 -75 -48 -100 -74 -25 -26 -56 -50 -70 -54 -14 -4 -35 -16 -47 -27 -14 -13 -29 -18 -39 -14 -19 7 -34 -9 -34 -35 0 -12 17 -20 63 -29 81 -16 186 -67 197 -95 5 -12 23 -28 42 -35 50 -20 60 -30 47 -46 -6 -8 -8 -22 -5 -31 13 -33 -5 -171 -26 -195 -17 -20 -22 -21 -52 -10 -43 16 -56 15 -56 -2 0 -15 53 -32 69 -22 10 6 41 -19 41 -34 0 -4 -13 -13 -29 -20 -23 -9 -57 -9 -153 0 -68 6 -166 15 -218 20 -53 5 -109 14 -125 20 -17 6 -47 9 -67 6 -39 -6 -106 -41 -124 -65 -24 -32 -204 9 -284 64 -40 28 -50 30 -50 14 0 -7 -7 -17 -16 -24 -13 -9 -16 -33 -18 -123 -1 -112 -1 -112 28 -137 37 -32 82 -43 181 -46 44 -1 107 -9 140 -17 33 -8 81 -14 108 -14 27 0 47 -4 47 -10 0 -6 12 -8 29 -5 17 4 31 2 33 -4 2 -7 64 -11 183 -10 169 1 236 7 345 32 l45 10 -3 97 c-2 53 -6 189 -8 302 l-5 206 27 24 c27 25 27 25 21 3 -6 -25 4 -29 34 -13 16 9 19 7 19 -11 0 -11 -10 -29 -22 -38 -12 -10 -24 -33 -26 -52 -7 -46 -7 -305 0 -404 9 -150 26 -169 118 -128 33 14 56 20 58 13 5 -15 23 -12 65 10 20 11 45 20 55 20 10 0 27 7 38 15 10 8 32 15 47 15 15 0 42 7 59 16 49 25 50 4 2 -70 -24 -38 -44 -75 -44 -83 0 -7 -11 -36 -25 -65 -29 -61 -30 -62 -10 -54 11 4 16 -5 21 -34 4 -26 12 -40 21 -40 12 0 14 -8 8 -37 -4 -21 -10 -42 -14 -48 -9 -11 -27 -94 -40 -175 -5 -30 -12 -63 -16 -72 -5 -12 -3 -18 6 -18 19 0 51 -58 36 -63 -9 -3 -8 -8 2 -21 12 -14 12 -21 1 -41 -7 -13 -13 -42 -13 -64 0 -26 -4 -41 -12 -41 -7 0 -20 -19 -30 -42 -11 -24 -20 -44 -21 -46 -6 -10 -55 25 -66 48 -18 37 -15 146 5 197 15 37 15 53 5 120 -7 43 -17 81 -22 85 -7 5 -5 8 5 8 17 0 33 57 18 65 -19 12 -44 -62 -68 -201 -4 -22 -17 -52 -29 -65 -14 -15 -22 -34 -20 -54 2 -36 -10 -75 -23 -75 -5 0 -9 -9 -9 -20 0 -13 5 -18 15 -14 9 4 15 0 15 -9 0 -8 -7 -18 -15 -21 -9 -3 -21 -19 -26 -36 -6 -16 -15 -30 -20 -30 -12 0 -11 -97 1 -105 6 -3 10 -15 10 -26 0 -10 5 -19 12 -19 6 0 2 -9 -11 -21 -15 -14 -30 -19 -45 -15 -32 8 -58 -31 -55 -82 2 -20 -3 -48 -10 -61 -8 -14 -11 -38 -7 -59 4 -26 0 -41 -14 -60 -11 -13 -20 -39 -20 -57 0 -19 -8 -39 -19 -49 -19 -18 -30 -67 -34 -161 -1 -27 -8 -60 -15 -73 -8 -13 -10 -36 -7 -56 6 -30 3 -35 -28 -54 -20 -11 -40 -30 -47 -41 -10 -20 -9 -21 73 -21 53 0 88 5 95 12 10 10 14 10 21 0 6 -9 264 -12 1234 -10 l1227 3 -28 31 c-55 60 -82 160 -83 303 0 24 -7 57 -15 73 -9 18 -13 41 -8 62 4 24 1 42 -11 60 -11 17 -15 35 -10 55 4 19 1 40 -9 60 -10 18 -13 41 -10 59 4 20 0 39 -11 56 -15 22 -16 31 -6 52 9 20 8 32 -5 60 -19 40 -75 91 -120 110 -47 20 -49 30 -7 51 45 22 45 21 73 277 11 99 27 190 35 205 8 14 19 50 24 79 6 29 25 79 41 113 25 48 35 59 49 54 14 -4 24 3 38 27 32 57 73 161 92 239 11 40 28 106 39 144 58 209 97 496 89 660 -4 89 -41 263 -61 282 -17 18 -61 -37 -111 -142 -68 -138 -152 -240 -277 -335 -48 -36 -99 -77 -115 -92 -70 -67 -161 -141 -188 -153 -49 -21 -116 -34 -112 -22 2 6 19 13 37 15 19 2 47 10 62 18 32 16 68 68 68 97 0 24 24 47 48 47 11 0 34 16 53 36 57 60 83 84 92 84 19 0 133 105 156 143 14 23 36 50 49 62 18 16 26 34 29 71 3 42 -1 58 -31 109 -19 33 -42 74 -51 92 -15 28 -20 31 -42 22 -13 -5 -51 -9 -83 -9 -55 0 -63 -3 -112 -43 -29 -23 -63 -62 -75 -87 -13 -24 -28 -47 -34 -51 -6 -4 -9 -13 -7 -20 3 -10 14 -4 37 19 59 59 67 39 19 -51 -40 -75 -128 -171 -180 -198 -41 -21 -118 -94 -118 -113 0 -6 -14 -29 -30 -50 -17 -22 -30 -48 -30 -58 0 -15 -5 -17 -27 -12 -69 17 -106 51 -85 77 6 6 10 17 10 22 -1 6 9 15 22 22 33 17 91 73 85 83 -7 12 -106 2 -202 -21 -120 -28 -132 -26 -243 35 -47 26 -75 35 -115 38 -32 2 -41 7 -43 25 -3 17 -12 23 -45 28 -23 4 -48 12 -54 17 -9 7 -15 5 -19 -6 -9 -22 -51 -20 -66 4 -16 24 -30 26 -26 3 2 -11 -6 -19 -22 -24 -35 -10 -88 -11 -94 -1 -3 4 -1 42 3 84 8 91 15 98 141 159 74 36 82 42 63 49 -40 16 -130 14 -155 -2 -95 -63 -148 -180 -148 -328 0 -80 17 -154 39 -170 4 -3 18 -21 31 -40 14 -19 45 -54 69 -77 33 -32 40 -43 26 -43 -21 0 -79 41 -113 79 -60 67 -85 127 -97 233 -6 49 -4 63 14 94 21 36 21 36 1 41 -24 6 -26 26 -5 43 11 9 14 22 9 46 -5 27 -3 34 10 34 11 0 16 -9 16 -27 0 -20 3 -24 9 -14 5 7 6 21 4 31 -3 10 3 29 11 43 14 21 14 25 3 30 -42 16 -138 -157 -149 -268 -3 -27 -6 -30 -38 -30 -25 0 -36 5 -38 18 -2 10 3 17 12 17 9 0 16 9 16 20 0 30 51 182 67 201 8 9 13 20 12 25 -4 21 2 34 15 34 8 0 16 4 18 8 2 5 29 25 61 46 31 21 57 42 57 47 0 11 -97 11 -125 0z m-215 -286 c0 -20 -5 -25 -25 -25 -31 0 -32 14 -3 34 29 20 28 21 28 -9z m376 -227 c57 -39 53 -106 -5 -91 -41 10 -79 74 -58 101 13 17 26 15 63 -10z m-379 -10 c-3 -8 -6 -5 -6 6 -1 11 2 17 5 13 3 -3 4 -12 1 -19z m230 -40 c-3 -8 -6 -5 -6 6 -1 11 2 17 5 13 3 -3 4 -12 1 -19z m-407 -118 c0 -34 15 -40 25 -11 10 32 35 13 35 -26 0 -20 -4 -32 -10 -28 -6 4 -10 -8 -10 -29 0 -19 6 -36 13 -39 10 -4 10 -7 0 -18 -18 -18 -16 -118 3 -154 8 -16 11 -31 6 -33 -5 -1 -7 -14 -4 -27 3 -19 -1 -25 -22 -31 -43 -11 -54 0 -61 63 -3 32 -10 96 -16 143 -13 107 -9 180 10 203 21 25 31 21 31 -13z m1927 -12 c-3 -8 -6 -5 -6 6 -1 11 2 17 5 13 3 -3 4 -12 1 -19z m-1647 -39 c-37 -10 -60 -10 -60 0 0 12 38 18 65 12 18 -4 18 -6 -5 -12z m459 -8 c7 -5 10 -14 7 -20 -4 -6 -3 -11 3 -11 5 0 11 6 14 13 3 9 12 8 34 -5 17 -10 33 -14 37 -11 4 4 11 1 17 -7 8 -13 10 -13 19 0 9 13 11 13 20 0 8 -13 10 -12 10 5 1 18 2 18 10 -3 8 -20 15 -22 48 -19 l38 5 -4 -34 c-4 -28 -8 -34 -23 -29 -11 3 -28 8 -39 11 -11 3 -18 8 -16 12 2 4 -13 8 -34 8 -20 1 -48 8 -61 15 -13 7 -28 12 -32 11 -5 -1 -6 2 -2 8 4 6 -6 10 -25 10 -26 0 -31 3 -26 16 5 13 2 15 -15 11 -12 -3 -28 0 -36 9 -13 12 -11 14 14 14 15 0 34 -4 42 -9z m-399 -55 c0 -14 5 -17 23 -12 12 3 25 6 29 6 4 0 8 12 10 28 l3 27 20 -22 c11 -13 29 -23 40 -24 13 0 9 -4 -12 -10 -18 -5 -33 -16 -33 -24 0 -8 -7 -15 -15 -15 -8 0 -15 -9 -15 -20 0 -11 -5 -20 -12 -20 -8 0 -8 -4 2 -14 17 -16 80 -31 80 -19 0 4 3 18 6 29 5 19 2 21 -20 17 -39 -8 -32 19 9 39 l35 18 0 -54 c0 -29 5 -77 10 -106 6 -29 8 -55 6 -58 -3 -2 -56 -8 -118 -13 -101 -7 -114 -6 -126 9 -20 26 -10 46 28 54 29 6 38 3 51 -14 9 -11 24 -18 35 -16 27 5 22 44 -12 97 -16 23 -29 48 -30 54 0 7 -2 18 -2 25 -1 7 -12 17 -24 22 -18 7 -19 9 -5 9 12 1 17 9 17 29 0 21 2 24 10 12 5 -8 10 -23 10 -34z m688 -46 c-2 -5 -9 -6 -16 -1 -7 4 -10 15 -6 25 6 17 8 17 16 2 5 -9 8 -21 6 -26z m25 10 c-3 -11 -7 -20 -8 -20 -1 0 -5 9 -8 20 -3 12 0 20 8 20 8 0 11 -8 8 -20z m62 -10 c3 -5 1 -10 -4 -10 -6 0 -11 5 -11 10 0 6 2 10 4 10 3 0 8 -4 11 -10z m450 0 c-3 -5 -11 -10 -16 -10 -6 0 -7 5 -4 10 3 6 11 10 16 10 6 0 7 -4 4 -10z m-75 -20 c0 -5 -5 -10 -11 -10 -5 0 -7 5 -4 10 3 6 8 10 11 10 2 0 4 -4 4 -10z m-70 -10 c0 -5 -5 -10 -11 -10 -5 0 -7 5 -4 10 3 6 8 10 11 10 2 0 4 -4 4 -10z m-1140 -25 c0 -18 -5 -25 -20 -25 -15 0 -20 7 -20 25 0 18 5 25 20 25 15 0 20 -7 20 -25z m-330 -124 c0 -12 -20 -25 -27 -18 -7 7 6 27 18 27 5 0 9 -4 9 -9z m607 -13 c-3 -8 -6 -5 -6 6 -1 11 2 17 5 13 3 -3 4 -12 1 -19z m1323 -122 c0 -8 -4 -18 -10 -21 -5 -3 -10 3 -10 14 0 12 5 21 10 21 6 0 10 -6 10 -14z m-1213 -22 c-3 -3 -12 -4 -19 -1 -8 3 -5 6 6 6 11 1 17 -2 13 -5z m-622 -1124 c3 -5 1 -10 -4 -10 -6 0 -11 5 -11 10 0 6 2 10 4 10 3 0 8 -4 11 -10z m185 -11 c0 -5 -4 -9 -10 -9 -5 0 -10 7 -10 16 0 8 5 12 10 9 6 -3 10 -10 10 -16z m-139 -62 c-1 -12 -15 -9 -19 4 -3 6 1 10 8 8 6 -3 11 -8 11 -12z m812 6 c-7 -2 -19 -2 -25 0 -7 3 -2 5 12 5 14 0 19 -2 13 -5z m280 -82 c81 -23 111 -67 121 -178 l6 -73 -95 0 -95 0 0 66 c0 62 -1 65 -22 62 -16 -2 -23 -10 -22 -25 0 -13 1 -49 2 -80 l2 -58 112 6 c62 3 114 4 116 3 2 -1 10 -66 18 -145 8 -79 19 -157 24 -173 6 -17 7 -33 3 -37 -5 -4 -38 -10 -75 -14 -57 -6 -69 -5 -74 9 -5 14 -10 13 -38 -7 -24 -17 -45 -22 -97 -22 -56 0 -71 4 -101 27 -19 15 -42 42 -51 60 -17 37 -53 424 -43 465 10 39 80 101 129 113 23 6 45 12 49 13 22 6 90 -1 131 -12z m-473 -22 c21 -6 57 -28 80 -48 41 -35 42 -38 53 -124 5 -48 8 -89 6 -91 -2 -2 -47 -5 -99 -7 -90 -4 -95 -3 -93 16 6 43 -9 115 -23 115 -11 0 -14 -17 -14 -75 l0 -75 115 0 114 0 5 -32 c3 -18 8 -77 12 -132 3 -54 9 -122 13 -151 l7 -53 -65 -5 c-50 -3 -69 -1 -78 10 -10 13 -16 12 -42 -8 -57 -42 -174 -9 -215 61 -16 27 -23 68 -33 199 -6 92 -12 196 -12 233 -1 62 2 70 30 103 40 45 60 56 123 65 75 11 75 11 116 -1z m-370 -26 c50 -42 68 -82 75 -170 l8 -83 -62 -1 c-33 -1 -67 -2 -73 -3 -9 -1 -12 13 -10 48 4 65 -4 97 -23 90 -11 -5 -15 -24 -15 -78 0 -39 -4 -66 -8 -61 -10 14 -45 12 -50 -3 -2 -7 2 -10 11 -6 8 3 18 1 21 -5 4 -6 -6 -8 -25 -6 -21 3 -29 0 -26 -8 2 -7 15 -12 28 -12 13 1 27 -4 32 -10 4 -6 9 -1 13 13 6 21 12 22 94 22 71 0 89 -3 94 -16 3 -9 6 -55 6 -102 0 -48 7 -123 14 -167 8 -44 12 -82 10 -85 -10 -9 -109 -7 -121 2 -9 7 -21 5 -38 -6 -50 -33 -119 -15 -150 37 -23 38 -26 187 -6 280 8 38 11 96 7 171 -4 62 -4 121 0 131 10 24 80 54 127 53 25 0 48 -8 67 -25z m1884 -619 c10 -25 -1 -29 -14 -5 -6 12 -7 21 -1 21 5 0 12 -7 15 -16z"
       id="path262" />
    <path
       d="M1370 2398 c0 -19 2 -20 10 -8 13 19 13 30 0 30 -5 0 -10 -10 -10 -22z"
       id="path264" />
    <path
       d="M1371 2354 c0 -11 3 -14 6 -6 3 7 2 16 -1 19 -3 4 -6 -2 -5 -13z"
       id="path266" />
    <path
       d="M1370 2294 c0 -8 5 -12 10 -9 6 4 8 11 5 16 -9 14 -15 11 -15 -7z"
       id="path268" />
    <path
       d="M2466 312 c-6 -10 8 -110 17 -118 3 -4 13 -4 22 -1 15 7 22 78 9 111 -6 17 -39 22 -48 8z"
       id="path270" />
    <path
       d="M2010 243 c0 -52 10 -83 26 -83 20 0 24 13 17 69 -5 41 -9 51 -24 51 -15 0 -19 -8 -19 -37z"
       id="path272" />
    <path
       d="M1610 662 c0 -7 -11 -12 -25 -12 -17 0 -25 -5 -25 -17 0 -13 2 -15 8 -5 5 7 16 10 24 7 15 -6 34 22 23 33 -3 3 -5 0 -5 -6z"
       id="path274" />
    <path
       d="M1620 629 c0 -5 5 -7 10 -4 6 3 10 8 10 11 0 2 -4 4 -10 4 -5 0 -10 -5 -10 -11z"
       id="path276" />
    <path
       d="M1590 609 c0 -5 5 -7 10 -4 6 3 10 8 10 11 0 2 -4 4 -10 4 -5 0 -10 -5 -10 -11z"
       id="path278" />
    <path
       d="M1731 599 c0 -9 7 -25 17 -36 9 -10 14 -14 10 -9 -3 4 -4 15 -1 24 4 9 2 13 -5 9 -6 -4 -13 1 -15 10 -4 15 -5 15 -6 2z"
       id="path280" />
    <path
       d="M1685 570 c4 -6 11 -8 16 -5 14 9 11 15 -7 15 -8 0 -12 -5 -9 -10z"
       id="path282" />
    <path
       d="M1750 360 c0 -5 7 -10 16 -10 8 0 12 5 9 10 -3 6 -10 10 -16 10 -5 0 -9 -4 -9 -10z"
       id="path284" />
    <path
       d="M1766 278 c4 -35 8 -75 9 -91 1 -15 5 -30 8 -33 3 -3 4 13 1 37 -2 24 -4 68 -5 97 -1 28 -6 52 -11 52 -6 0 -7 -23 -2 -62z"
       id="path286" />
    <path
       d="M1561 319 c-1 -3 8 -23 19 -45 l19 -39 1 33 c0 21 -5 32 -14 32 -8 0 -17 6 -19 13 -3 6 -6 9 -6 6z"
       id="path288" />
    <path
       d="M1630 221 c0 -48 3 -61 15 -61 13 0 15 11 13 57 -4 81 -28 85 -28 4z"
       id="path290" />
    <path
       d="M1522 240 c0 -14 2 -19 5 -12 2 6 2 18 0 25 -3 6 -5 1 -5 -13z"
       id="path292" />
    <path
       d="M1591 194 c0 -11 3 -14 6 -6 3 7 2 16 -1 19 -3 4 -6 -2 -5 -13z"
       id="path294" />
    <path
       d="M1515 163 c3 -8 5 -18 5 -23 0 -4 7 -10 15 -14 11 -4 14 0 11 17 -3 12 -5 25 -5 28 -1 3 -8 6 -16 6 -10 0 -14 -6 -10 -14z"
       id="path296" />
    <path
       d="M1601 144 c0 -11 3 -14 6 -6 3 7 2 16 -1 19 -3 4 -6 -2 -5 -13z"
       id="path298" />
    <path
       d="M1920 3170 c0 -5 10 -10 23 -10 18 0 19 2 7 10 -19 13 -30 13 -30 0z"
       id="path300" />
    <path
       d="M4050 3080 c0 -5 5 -10 10 -10 6 0 10 5 10 10 0 6 -4 10 -10 10 -5 0 -10 -4 -10 -10z"
       id="path302" />
    <path
       d="M1480 2980 c0 -5 5 -10 11 -10 5 0 7 5 4 10 -3 6 -8 10 -11 10 -2 0 -4 -4 -4 -10z"
       id="path304" />
    <path
       d="M4032 2936 c7 -8 15 -12 17 -11 5 6 -10 25 -20 25 -5 0 -4 -6 3 -14z"
       id="path306" />
    <path
       d="M4070 2901 c0 -6 5 -13 10 -16 6 -3 10 1 10 9 0 9 -4 16 -10 16 -5 0 -10 -4 -10 -9z"
       id="path308" />
    <path
       d="M4140 2890 c0 -5 5 -10 10 -10 6 0 10 5 10 10 0 6 -4 10 -10 10 -5 0 -10 -4 -10 -10z"
       id="path310" />
    <path
       d="M2098 2823 c7 -3 16 -2 19 1 4 3 -2 6 -13 5 -11 0 -14 -3 -6 -6z"
       id="path312" />
    <path
       d="M736 2748 c7 -25 22 -38 43 -38 10 0 4 11 -14 30 -34 36 -39 37 -29 8z"
       id="path314" />
    <path
       d="M660 2746 c0 -2 15 -9 33 -15 29 -10 30 -9 13 4 -18 14 -46 20 -46 11z"
       id="path316" />
    <path
       d="M4220 2710 c0 -5 4 -10 9 -10 6 0 13 5 16 10 3 6 -1 10 -9 10 -9 0 -16 -4 -16 -10z"
       id="path318" />
    <path
       d="M4288 2533 c7 -3 16 -2 19 1 4 3 -2 6 -13 5 -11 0 -14 -3 -6 -6z"
       id="path320" />
    <path
       d="M267 2472 c-31 -4 -62 -44 -53 -67 7 -20 104 -20 258 0 111 15 171 10 167 -12 -4 -22 4 -32 33 -46 21 -10 37 -12 44 -6 19 16 95 21 189 12 106 -10 164 1 162 29 -1 10 -10 21 -22 23 -11 2 -47 9 -80 15 -33 7 -101 23 -152 36 -86 23 -106 25 -305 22 -117 -1 -225 -4 -241 -6z"
       id="path322" />
    <path
       d="M4308 2463 c7 -3 16 -2 19 1 4 3 -2 6 -13 5 -11 0 -14 -3 -6 -6z"
       id="path324" />
    <path
       d="M4420 2360 c0 -5 5 -10 10 -10 6 0 10 5 10 10 0 6 -4 10 -10 10 -5 0 -10 -4 -10 -10z"
       id="path326" />
    <path
       d="M4400 2250 c0 -5 5 -10 10 -10 6 0 10 5 10 10 0 6 -4 10 -10 10 -5 0 -10 -4 -10 -10z"
       id="path328" />
    <path
       d="M4475 2210 c3 -5 12 -7 20 -3 21 7 19 13 -6 13 -11 0 -18 -4 -14 -10z"
       id="path330" />
    <path
       d="M4480 2180 c0 -5 5 -10 11 -10 6 0 9 -7 5 -15 -3 -8 -1 -15 4 -15 6 0 10 11 10 25 0 16 -6 25 -15 25 -8 0 -15 -4 -15 -10z"
       id="path332" />
    <path
       d="M1596 1362 c-2 -4 -1 -14 5 -22 7 -12 9 -10 9 8 0 23 -5 28 -14 14z"
       id="path334" />
    <path
       d="M3431 994 c0 -11 3 -14 6 -6 3 7 2 16 -1 19 -3 4 -6 -2 -5 -13z"
       id="path336" />
  </g>
</svg>
