<?xml version="1.0" encoding="UTF-8" standalone="no"?>
<svg
   version="1.0"
   width="202.000000pt"
   height="249.000000pt"
   viewBox="0 0 202.000000 249.000000"
   preserveAspectRatio="xMidYMid meet"
   id="svg1326"
   sodipodi:docname="JCC.svg"
   inkscape:version="1.2 (dc2aedaf03, 2022-05-15)"
   xmlns:inkscape="http://www.inkscape.org/namespaces/inkscape"
   xmlns:sodipodi="http://sodipodi.sourceforge.net/DTD/sodipodi-0.dtd"
   xmlns="http://www.w3.org/2000/svg"
   xmlns:svg="http://www.w3.org/2000/svg">
  <defs
     id="defs1330">
    <clipPath
       clipPathUnits="userSpaceOnUse"
       id="clipPath1508">
      <path
         id="path1510"
         style="fill:#ff0000;fill-opacity:1;fill-rule:nonzero;stroke:none;stroke-width:7.5"
         d="m 1799.4287,2490 c 1.0499,-0.273 2.096,-0.5608 3.1494,-0.8203 0.2078,0.25 0.3606,0.5744 0.5713,0.8203 z m 212.8858,-23.7598 c -0.306,-0.1426 -2.1033,-1.2014 -3.6036,-1.9775 1.267,0.5166 2.4948,1.1313 3.6036,1.9775 z m -5.7862,-0.6738 c 0.023,0.2516 -0.624,-1.3711 -0.9961,-2.2705 0.378,0.079 0.7575,0.1484 1.128,0.249 -0.408,0.3534 -0.1635,1.6197 -0.132,2.0215 z m -448.2275,-30.1025 c 0.3653,-0.1247 0.7365,-0.2315 1.0986,-0.3662 4.2896,-1.5972 8.3486,-3.7375 12.583,-5.4639 0.1717,1.8761 0.354,3.7505 0.5422,5.625 -4.7433,-0.085 -9.4884,-0.1298 -14.2236,0.2051 z m -121.6406,-6.709 c -1.3897,0.046 -2.773,-0.1388 -4.1602,-0.2344 -7.4469,-0.5129 -6.8144,-0.5092 -14.5312,-1.2891 -14.3883,-1.6316 -28.7903,-3.2483 -43.2129,-4.541 -12.5354,-0.9333 -24.7118,-4.4783 -36.8848,-7.4414 -9.3066,-2.3031 -18.6073,-4.6535 -28.0078,-6.5478 -5.4296,-1.0682 -10.6956,-2.8248 -15.9375,-4.5703 -5.0289,-1.6137 -9.9933,-3.3854 -14.9414,-5.2295 -4.4284,-2.0518 -8.9583,-3.8541 -13.6231,-5.2881 -2.1839,-0.5479 -4.0769,-1.6714 -5.8593,-3.0029 -3.2768,-2.1958 -5.8316,-5.0573 -8.4082,-7.9981 -7.5324,-8.4968 -14.9318,-17.1139 -22.4708,-25.6055 -5.4519,-6.0857 -11.1763,-11.9261 -16.6552,-17.9882 -1.9887,-2.1368 -4.0169,-4.2284 -5.9326,-6.4307 -5.4507,-6.2661 -10.4774,-5.398 -14.5166,-3.8233 -0.045,-0.1253 -0.102,-0.2946 -0.1462,-0.4101 -1.4825,-3.0651 -3.415,-6.0563 -6.2989,-7.9981 -0.9936,-0.6689 -1.9855,-1.5941 -3.1787,-1.6992 -0.357,-0.032 -0.7118,-0.011 -1.0693,-0.014 -0.9046,-0.9715 -1.804,-1.9601 -2.7246,-2.9151 -2.5683,-2.5789 -8.8562,-9.4159 -12.6563,-9.2431 -4.339,0.1972 -7.1013,0.7104 -8.9941,1.8457 -1.4949,-0.3546 -3.147,-0.5598 -5.0391,-0.6006 -5.798,0.5226 -11.0876,2.0816 -14.5459,7.2363 -0.7577,1.1295 -1.1794,2.4381 -1.7724,3.6621 -0.2302,1.135 -0.5392,2.2648 -0.6885,3.4131 -0.48,3.688 0.4433,7.4427 1.1426,11.0303 0.8945,3.6514 1.7569,7.3114 2.7832,10.9277 1.8171,5.4635 4.1215,10.7412 7.0605,15.7031 1.3844,2.5207 2.7789,5.0293 4.1748,7.544 -2.606,-2.7075 -4.4476,-6.1299 -7.4267,-8.4668 -18.7621,-12.2417 -37.1896,-18.035 -59.8242,-15.1172 -19.6648,2.7901 -39.1433,7.0398 -56.9971,16.0254 -11.0781,-16.1459 -27.94648,-27.7764 -47.02153,-31.4355 -34.64857,-4.3922 -69.399,-1.401 -103.59375,5.4931 -42.7524,9.7796 -86.87797,20.0314 -122.57812,46.875 -5.02041,4.1744 -9.96614,8.4399 -14.94138,12.6709 0.59055,-0.6834 1.17009,-1.3785 1.77246,-2.0508 14.98482,-16.7212 11.1149,-25.3559 -0.70313,-29.8974 1.37946,-2.6135 2.43813,-5.3074 2.44629,-8.2764 0.063,-23.0715 3.20718,-51.96 -13.47655,-67.8955 -17.27888,-16.5039 -36.22231,-4.5174 -51.0498,10.459 -8.00631,-15.5699 -18.75347,-31.4942 -34.83399,-36.0498 -12.22973,-3.4646 -24.92003,0.7089 -37.17773,6.4013 -5.65038,-0.4782 -11.29635,-0.8871 -16.91895,-0.3515 -7.82923,0.7444 -15.43655,3.2266 -22.86652,5.8005 -34.53216,11.9624 -63.49653,35.9784 -92.75391,56.9238 -1.64513,1.297 -3.26499,2.6252 -4.90722,3.9258 -4.99851,-1.9917 -10.06284,-4.0092 -15.92285,-6.3428 -0.94944,-0.3781 -5.66074,3.1184 -11.04493,7.4121 -16.36138,-26.0131 -23.86015,-26.254 -40.45898,-16.5088 -8.17445,-3.5551 -17.48862,-7.4169 -29.56055,-12.1435 -4.38605,-1.7174 -8.42123,0.3971 -12.31933,3.7207 -1.85601,-0.9826 -3.16347,-1.6926 -5.1416,-2.7393 -0.12975,-0.069 -0.33682,-0.016 -0.48337,-0.059 -2.69883,-4.2156 -5.5354,-8.3674 -8.54004,-12.4365 3.4523,-12.1201 5.84652,-23.9966 -0.35153,-33.8525 -27.35197,-43.4958 -59.14039,-29.5712 -83.5254,-9.9463 -7.69337,6.1915 -14.04365,13.8949 -20.75683,21.1377 -6.82514,7.3635 -19.94675,22.5547 -31.56738,36.0644 -16.7636,-5.1697 -35.92067,-2.174 -52.29493,1.8311 -1.52744,0.4941 -3.07568,1.0504 -4.61425,1.5674 -0.15945,-1.372 -0.40455,-2.7436 -0.52732,-4.1163 -17.2816,-8.3006 -32.86952,-22.1376 -51.84082,-24.9023 -9.405128,-1.3713 -17.467733,7.9219 -25.004881,13.7109 -5.73155,4.401 -9.898245,10.5812 -14.194336,16.3916 -2.997157,4.0537 -5.76159,8.2637 -8.4375,12.5391 -2.481795,-9.9748 -6.236719,-19.2589 -12.421875,-21.2256 C 22.053811,2297.4119 9.7639388,2295.1697 0,2295.249 V 485.63963 c 7.5921368,12.92849 18.99533,19.40954 30.527344,19.40917 20.390382,-6e-4 41.198576,-20.2101 42.084961,-60.62985 0.01522,-0.6945 0.0017,-1.38615 0.01462,-2.08005 9.246558,4.05638 19.35961,5.73315 30.732425,3.2226 5.95947,-1.31535 11.0365,-5.10532 16.3623,-8.18842 2.34333,2.0343 4.87838,3.86632 7.70508,5.37592 6.2203,3.3222 13.30264,4.69485 19.95117,7.04595 7.00669,-0.6345 14.18572,-0.2355 21.02051,-1.90432 21.55778,-5.26313 35.91653,-24.85313 45.17578,-43.35938 7.63498,-17.19405 9.8512,-35.86987 11.38183,-54.41895 0.27548,-3.46882 0.45203,-6.94605 0.62986,-10.41502 25.72041,32.41897 70.21477,13.29465 65.20018,-43.69628 25.13885,-13.97325 25.55991,-48.306 -9.25781,-67.9395 -0.24293,-6.90877 -0.6096,-13.8084 -0.74707,-20.74215 -0.36728,-13.1133 -0.78096,-26.24857 -2.4756,-39.27248 -1.37135,-10.66649 -3.42534,-21.26774 -4.18945,-31.99215 -0.57862,-11.72939 0.78583,-23.35327 1.99219,-35.02447 C 277.98725,82.2963 280.5455,63.272475 276.21086,44.6631 273.33406,31.020075 269.55265,17.534625 263.49601,4.921875 262.5832,3.214125 261.63318,1.5333 260.66887,-0.13185 H 1545.0146 c -56.3334,22.65075 -43.6365,84.735225 28.5792,75.4248 7.7092,-0.99405 15.3321,-2.52015 22.9101,-4.2627 10.1139,10.91895 28.4938,18.13365 54.7851,15.90825 14.6904,-1.2435 29.3794,-2.696775 43.9306,-5.127 21.0434,-3.61545 41.9009,-8.080425 62.798,-12.407175 3.9294,1.98975 7.8654,3.97245 11.748,5.99115 24.8271,10.8024 50.7546,18.7137 77.5635,22.880925 22.6941,3.14528 45.564,5.11853 68.4813,4.90717 3.2742,-0.03 6.5388,-0.0968 9.8145,-0.21975 19.5984,-1.5849 38.3911,-7.87792 57.5538,-12.46582 1.4928,3.455025 5.3241,6.683175 11.8798,8.21775 8.3399,1.95233 16.9364,3.72128 24.9464,6.88478 V 2137.0605 c -4.1625,-5.0236 -10.1037,-8.9972 -18.6621,-11.2939 -7.8525,-12.3917 -17.133,-23.7293 -29.0187,-32.7686 -19.49,-14.7205 -39.4019,-21.1617 -59.2676,-11.7919 -17.5516,-27.578 -60.6313,-15.4026 -75.4101,41.0888 -3.4497,13.1867 -4.6918,26.9998 -9.4042,39.8438 -2.0565,3.5857 -4.6092,8.5493 -6.7383,13.8281 -3.0129,-7.2659 -9.654,-8.3327 -14.2383,-3.2373 -6.9009,-2.2316 -3.4091,-2.6444 -8.4083,1.7285 -3.0879,2.7486 -2.4856,6.3248 -3.6181,9.2432 -5.0903,-1.8423 -11.7219,1.7753 -14.0772,12.2754 -0.7941,3.5431 -1.1097,7.159 -1.6845,10.7373 -0.429,3.1241 -0.9834,6.2178 -1.6992,9.2871 -0.7956,3.8264 -1.4192,7.676 -2.0802,11.5283 -0.4192,2.2912 -1.1972,4.4955 -1.9482,6.6943 -1.3257,2.3893 -2.3364,4.9264 -3.1934,7.5147 -0.447,2.0949 -1.612,3.9177 -2.6512,5.7715 -1.6359,2.7675 -3.3126,5.5036 -4.8633,8.3203 -0.6818,1.3858 -1.3875,2.7585 -2.0655,4.1455 -3.8468,1.7677 -7.0272,4.4884 -9.7412,7.6904 -2.2828,2.6525 -3.5194,5.9232 -5.0683,9.0088 -1.7388,3.7861 -2.7045,7.8546 -3.9845,11.8066 -0.1897,0.4934 -0.2595,1.0224 -0.4245,1.5235 -1.7047,1.5602 -3.3973,3.1351 -5.1562,4.6289 -2.0933,1.9852 -4.5987,3.447 -7.002,5.0244 -4.4694,3.1842 -6.9866,8.0008 -9.5361,12.7002 -2.0324,3.3185 -3.9366,6.7264 -6.2109,9.8877 -2.3127,3.5059 -5.3801,6.3337 -8.379,9.2285 -2.9232,2.378 -5.8911,4.7159 -8.994,6.8555 -2.604,1.5751 -5.3693,2.8134 -7.9835,4.3799 -4.7533,2.9757 -8.9962,6.5704 -13.1397,10.3271 -4.7844,4.4563 -9.1597,9.3163 -13.6962,14.0186 -3.138,3.3467 -6.9268,5.8972 -10.708,8.4375 -3.839,2.0766 -7.9218,3.5659 -11.7774,5.6103 -12.2706,4.9961 -24.5978,9.841 -36.8262,14.9414 -11.4279,4.8449 -23.1381,8.9939 -34.79,13.2569 -6.6025,2.3756 -12.6724,5.8935 -19.3651,8.0127 -9.7932,2.6885 -19.9443,3.5423 -30.0294,4.3505 -6.4128,0.3081 -12.7074,1.6145 -19.0577,2.4463 -5.2473,0.6875 -5.9521,0.6832 -11.499,1.1719 -12.7481,0.9761 -25.5303,1.3382 -38.2912,2.0801 -5.0687,0.4085 -4.1919,0.2734 -9.0234,0.8935 -1.2108,0.1554 -2.4128,0.4573 -3.6328,0.4981 z m -243.5596,-65.2442 c -0.7012,-0.984 -1.3917,-1.9764 -2.0947,-2.9589 -1.0988,-3.7759 -2.1653,-7.5667 -3.0469,-11.3965 -0.3458,-1.4924 -0.633,-2.7391 -0.9229,-3.9991 0.639,-0.2774 1.2439,-0.5279 1.9776,-0.8935 0.5175,-0.2578 0.932,-0.6309 1.3037,-1.0547 0.711,1.1608 -0.687,1.6627 0.366,2.8565 1.9995,2.2657 4.0524,4.4633 6.1377,6.6503 2.607,2.8811 5.253,5.7229 7.9101,8.5547 -5.8668,1.3643 -9.5224,1.8016 -11.6307,2.2412 z m 531.5625,-20.7275 c -0.4545,-0.092 -0.9084,-0.18 -1.3623,-0.2783 0.6008,-0.6099 1.2312,-1.1917 1.8164,-1.8164 -0.159,0.6972 -0.2827,1.4002 -0.4537,2.0947 z m 67.4707,-94.4092 c -0.7509,-1.6162 -0.6615,-2.0909 0.2055,-1.5674 -0.075,0.5224 -0.1358,1.0444 -0.2055,1.5674 z m 132.6855,-88.6377 c -1.1402,-0.059 -1.21,-0.334 -0.8349,-0.747 0.2805,0.2474 0.5625,0.4927 0.8349,0.747 z M 179.47266,383.33497 c -0.17205,-0.0525 -0.7482,-1.11915 -1.61133,-3.60352 1.33781,2.0085 1.84302,3.66952 1.61133,3.60352 z" />
    </clipPath>
  </defs>
  <sodipodi:namedview
     id="namedview1328"
     pagecolor="#ffffff"
     bordercolor="#000000"
     borderopacity="0.25"
     inkscape:showpageshadow="2"
     inkscape:pageopacity="0.0"
     inkscape:pagecheckerboard="0"
     inkscape:deskcolor="#d1d1d1"
     inkscape:document-units="pt"
     showgrid="false"
     inkscape:zoom="1.1686747"
     inkscape:cx="-323.4433"
     inkscape:cy="25.242268"
     inkscape:window-width="1920"
     inkscape:window-height="974"
     inkscape:window-x="-11"
     inkscape:window-y="-11"
     inkscape:window-maximized="1"
     inkscape:current-layer="svg1326" />
  <g
     transform="translate(0.000000,249.000000) scale(0.100000,-0.100000)"
     fill="#000000"
     stroke="none"
     id="g1324"
     clip-path="url(#clipPath1508)">
    <path
       d="M0 2410 l0 -80 40 0 c30 0 40 4 40 16 0 14 10 15 73 10 59 -6 78 -4 107 11 23 12 58 18 105 19 39 0 80 6 93 13 18 10 22 9 22 -4 0 -20 18 -19 55 3 27 17 49 18 230 14 132 -3 208 -9 225 -17 14 -7 69 -16 123 -20 62 -4 97 -11 97 -18 0 -8 3 -7 9 1 7 11 9 11 14 -2 5 -11 0 -16 -14 -16 -12 0 -17 -4 -14 -11 4 -6 -1 -19 -11 -29 -33 -33 -41 -45 -41 -63 0 -14 3 -14 16 -5 9 7 13 8 9 4 -4 -5 -3 -15 3 -22 8 -10 6 -12 -9 -9 -25 4 -23 -16 3 -45 10 -11 14 -20 9 -20 -5 0 -2 -5 6 -10 10 -7 11 -10 3 -11 -7 -1 -17 -2 -23 -3 -5 0 -16 -10 -24 -21 -9 -12 -15 -15 -16 -7 0 7 -5 10 -11 6 -6 -3 -9 -17 -6 -30 2 -13 0 -24 -5 -24 -47 0 -50 -127 -5 -197 9 -15 -11 -18 -190 -32 -251 -20 -358 -56 -458 -155 -68 -68 -101 -133 -120 -238 -21 -120 -31 -150 -92 -278 -120 -254 -112 -227 -112 -341 0 -111 9 -137 61 -187 26 -24 17 -25 153 21 l70 24 -1 37 c-1 30 2 36 16 31 17 -5 75 19 86 36 3 5 2 8 -3 7 -4 -1 -30 4 -56 11 -36 10 -54 23 -72 49 -32 47 -20 61 19 23 18 -17 39 -31 48 -31 9 0 20 -5 23 -10 4 -6 10 -8 14 -6 4 3 13 1 21 -4 15 -9 70 26 70 46 0 6 -16 15 -37 19 -33 6 -93 52 -93 72 0 11 45 11 56 1 4 -5 35 -8 69 -8 52 0 66 4 88 24 15 14 29 20 32 15 4 -5 2 -9 -3 -9 -6 0 -15 -14 -21 -31 -6 -17 -19 -39 -28 -48 -10 -9 -27 -34 -38 -56 -12 -22 -36 -50 -54 -62 -18 -12 -53 -40 -76 -62 -36 -33 -45 -49 -51 -88 -3 -26 -17 -66 -29 -88 -13 -22 -30 -64 -40 -92 -9 -29 -22 -56 -29 -60 -7 -5 -16 -33 -19 -63 -3 -30 -11 -68 -17 -85 l-12 -30 -12 30 c-9 20 -10 36 -4 48 5 10 7 23 5 30 -3 7 -9 1 -15 -13 -10 -24 -11 -24 -11 -3 -1 33 -81 84 -81 51 0 -6 -12 0 -27 14 -33 30 -88 58 -115 58 -17 0 -18 -12 -18 -205 l0 -205 160 0 c159 0 160 0 161 23 l0 22 11 -23 c9 -17 20 -22 50 -22 38 0 52 15 23 26 -8 4 -15 13 -15 21 0 9 12 3 33 -16 34 -33 77 -41 77 -16 0 16 -9 29 -41 63 -27 28 -50 82 -46 105 3 20 5 20 17 -8 7 -16 12 -36 11 -44 -1 -7 2 -10 8 -6 6 3 21 -3 33 -14 12 -12 16 -21 10 -21 -9 0 -8 -8 3 -30 19 -36 25 -37 73 -6 60 38 78 58 92 101 20 64 29 69 60 38 15 -16 37 -35 50 -43 45 -30 49 -38 39 -72 -14 -52 -11 -78 9 -78 16 0 18 8 15 60 -3 57 -2 60 16 50 25 -13 34 -13 26 1 -5 7 3 9 24 6 17 -3 29 -1 25 4 -3 5 -11 9 -18 9 -24 0 -127 50 -122 59 3 5 -1 22 -9 37 -13 26 -13 30 0 40 13 9 23 5 51 -22 19 -19 38 -35 42 -35 30 -5 65 -6 54 -2 -16 6 23 63 43 63 9 0 12 8 10 21 -5 27 -10 32 -33 34 -9 0 -18 5 -19 10 -1 6 4 9 12 7 22 -4 26 27 4 39 -13 6 -19 18 -16 28 2 10 -2 17 -12 18 -45 4 -59 8 -54 17 4 5 -1 7 -10 3 -9 -3 -18 1 -21 10 -4 11 -2 14 9 9 8 -3 14 -2 14 2 -4 22 3 24 14 3 6 -13 20 -25 31 -27 14 -2 16 0 7 9 -15 15 -14 30 1 21 8 -5 9 -2 5 10 -4 11 -3 15 4 11 6 -4 8 -13 5 -20 -6 -16 34 -55 57 -55 20 0 23 16 5 23 -7 2 -10 8 -6 12 9 9 40 -14 33 -24 -2 -4 2 -8 10 -8 10 0 13 7 9 22 -12 49 -10 61 14 87 25 28 25 28 4 28 -12 0 -22 -4 -22 -10 0 -5 -7 -10 -15 -10 -8 0 -15 -6 -15 -12 0 -10 -3 -9 -9 1 -11 17 -8 41 5 42 5 0 15 6 23 12 12 9 13 9 7 0 -5 -9 1 -13 19 -13 37 0 42 -26 12 -58 -28 -29 -23 -56 10 -58 10 -1 27 -5 37 -10 13 -5 17 -4 13 3 -4 6 0 13 8 17 8 3 17 1 20 -3 3 -5 -2 -12 -11 -15 -13 -5 -14 -9 -4 -21 10 -12 9 -16 -5 -21 -19 -8 -38 14 -27 31 3 5 -1 4 -10 -2 -8 -7 -18 -10 -21 -6 -10 10 -8 -10 3 -27 7 -11 10 -11 10 -2 0 26 20 0 20 -26 1 -25 1 -26 12 -7 16 28 31 36 40 22 12 -19 10 -25 -12 -32 -11 -4 -18 -11 -14 -16 3 -5 9 -7 14 -4 4 3 10 -2 14 -10 7 -20 -8 -19 -24 0 -8 10 -27 15 -51 13 -31 -1 -39 -6 -40 -22 -1 -17 -2 -18 -6 -3 -2 9 -12 17 -22 17 -14 0 -17 -6 -13 -30 4 -29 12 -37 25 -24 3 4 24 8 47 9 23 2 48 9 56 15 11 10 14 9 14 -5 0 -19 -56 -75 -74 -75 -6 0 -4 -5 4 -10 9 -6 11 -10 3 -10 -7 0 -10 -6 -7 -13 6 -16 41 -19 50 -5 5 7 1 9 -9 5 -10 -3 -17 -2 -17 3 0 6 5 10 11 10 5 0 7 5 3 12 -4 6 -3 8 3 5 6 -4 18 2 28 13 11 13 14 20 6 20 -7 0 -9 5 -6 10 4 6 12 4 22 -5 14 -15 13 -18 -8 -41 -17 -19 -19 -23 -6 -18 25 9 21 -13 -5 -27 l-23 -12 28 -10 c32 -10 35 -27 7 -34 -14 -4 -22 -17 -26 -43 -5 -28 -13 -41 -33 -51 -26 -13 -26 -13 -3 -17 16 -2 47 16 108 63 47 37 88 73 91 81 3 8 12 14 19 14 12 0 12 4 4 20 -6 11 -17 20 -24 20 -7 0 -21 9 -31 20 -11 12 -13 20 -6 20 7 0 9 5 5 13 -4 6 -4 9 1 5 4 -4 16 -3 26 3 14 7 19 6 19 -3 0 -6 7 -3 15 8 8 10 15 14 15 8 0 -7 6 -14 13 -17 9 -3 13 3 13 16 -1 12 4 22 9 22 21 1 53 25 75 58 l24 35 38 -25 c64 -43 111 -42 200 5 99 51 154 95 189 151 22 34 26 47 16 54 -9 6 -9 10 0 13 7 3 9 12 6 20 -3 8 0 14 6 14 6 0 11 5 11 11 0 5 -5 7 -12 3 -8 -5 -9 2 -5 25 12 57 -38 153 -101 196 -41 28 -67 22 -81 -17 l-11 -30 -27 22 c-20 16 -36 20 -59 16 -30 -6 -31 -6 -43 51 -6 32 -12 66 -12 76 0 21 -4 21 -29 0 -16 -14 -20 -30 -20 -79 0 -96 -7 -115 -56 -152 -24 -17 -45 -32 -47 -32 -3 0 2 27 11 61 13 51 13 62 1 69 -11 7 -10 10 3 15 10 4 26 22 37 41 20 33 20 34 1 24 -10 -5 -22 -15 -25 -20 -3 -6 -17 -10 -30 -10 -26 0 -100 -22 -152 -46 -50 -23 -76 -18 -91 16 -16 36 -37 39 -46 7 -7 -26 23 -54 67 -64 36 -8 42 -19 16 -33 -15 -9 -28 -9 -48 0 -21 8 -34 8 -54 -1 -20 -9 -36 -9 -71 1 -24 7 -49 9 -56 5 -6 -4 -43 -9 -83 -11 -40 -2 -78 -6 -84 -9 -7 -2 -13 0 -13 5 0 5 10 11 23 13 16 3 14 5 -10 6 -25 1 -31 5 -30 21 1 23 17 28 17 5 0 -20 24 -19 44 1 24 24 19 40 -19 64 -24 15 -35 29 -35 46 0 18 -4 22 -17 18 -17 -5 -17 -5 0 6 23 15 22 30 -3 30 -11 0 -20 5 -20 11 0 6 6 9 13 6 8 -3 14 1 14 9 0 8 -6 14 -14 14 -7 0 -13 5 -13 10 0 6 8 10 18 10 23 0 64 29 42 30 -17 0 36 30 54 30 7 0 25 -13 41 -30 20 -21 38 -30 61 -30 38 0 53 16 61 64 3 20 9 33 14 30 5 -3 9 0 9 6 0 6 9 29 19 51 23 47 46 202 38 258 -5 42 -6 41 43 24 27 -10 86 -13 72 -4 -27 16 16 21 59 6 57 -20 62 -19 34 10 -25 25 -29 45 -16 79 7 18 8 18 14 2 9 -23 30 -9 24 15 -5 19 3 23 33 19 10 -1 7 5 -7 18 -13 11 -23 24 -23 30 0 5 -8 8 -17 6 -30 -7 -45 12 -54 67 -5 29 -13 55 -19 59 -5 3 -12 32 -15 63 -5 56 -5 56 31 73 19 9 38 14 41 10 3 -3 -1 -6 -10 -6 -23 0 -22 -43 0 -61 15 -12 16 -12 11 7 -4 18 -2 21 14 16 11 -3 24 1 29 9 16 27 44 -4 46 -51 1 -24 -2 -38 -6 -32 -4 6 -16 -9 -30 -39 l-24 -50 21 -19 c12 -11 30 -20 40 -20 15 0 19 8 20 53 1 29 8 71 16 95 17 49 13 72 -14 65 -10 -3 -21 0 -24 6 -4 6 -2 11 5 11 7 0 -6 14 -29 32 -45 34 -55 70 -26 86 12 7 15 18 12 36 -4 22 -1 29 16 36 36 13 150 -3 176 -25 8 -7 38 -16 65 -19 87 -12 86 -11 81 -72 -3 -30 -8 -76 -11 -102 l-7 -47 24 42 c12 23 38 63 57 89 40 56 49 115 32 208 -8 43 -8 63 0 73 20 23 28 14 18 -19 -12 -44 -11 -57 3 -33 12 19 12 19 19 -5 7 -25 7 -25 8 -2 1 19 5 22 23 17 13 -4 27 -11 32 -16 6 -5 21 -9 34 -9 13 0 35 -9 49 -20 14 -11 30 -20 34 -20 5 0 9 81 9 180 l0 180 -250 0 c-193 0 -250 -3 -250 -12 0 -9 -2 -10 -8 -2 -4 6 -32 11 -62 11 -30 0 -58 -5 -62 -11 -6 -8 -8 -7 -8 2 0 9 -145 12 -690 12 l-690 0 0 -80z m1542 48 c-6 -27 -20 -38 -39 -31 -20 8 -16 27 10 39 33 17 36 16 29 -8z m-67 2 c3 -5 1 -10 -4 -10 -6 0 -11 5 -11 10 0 6 2 10 4 10 3 0 8 -4 11 -10z m115 -35 c16 -19 1 -19 -24 0 -16 12 -17 15 -4 15 8 0 21 -7 28 -15z m-487 -12 c-13 -2 -33 -2 -45 0 -13 2 -3 4 22 4 25 0 35 -2 23 -4z m155 -20 c2 -9 -7 -13 -30 -12 l-33 2 30 5 30 5 -25 8 -25 8 24 -2 c14 -1 26 -8 29 -14z m415 -8 c-3 -9 -8 -14 -10 -11 -3 3 -2 9 2 15 9 16 15 13 8 -4z m37 -35 c0 -5 -2 -10 -4 -10 -3 0 -8 5 -11 10 -3 6 -1 10 4 10 6 0 11 -4 11 -10z m47 -55 c-1 -19 -1 -33 -2 -32 -1 1 -9 16 -20 32 -15 25 -16 28 -2 16 15 -12 17 -11 17 3 0 9 2 16 4 16 2 0 4 -16 3 -35z m-577 -259 c0 -8 -4 -17 -10 -21 -5 -3 -7 -12 -4 -19 3 -8 1 -17 -4 -20 -10 -6 -22 60 -13 69 10 11 31 4 31 -9z m75 -97 c-19 -22 -35 -50 -35 -63 0 -13 -8 -34 -19 -47 -10 -13 -16 -30 -13 -38 3 -10 0 -12 -12 -8 -9 4 -16 1 -16 -5 0 -6 -3 -8 -7 -5 -3 4 -17 -15 -30 -41 -23 -46 -23 -46 -18 -12 2 19 11 64 19 100 8 36 12 78 9 94 -6 26 -4 29 15 24 12 -4 22 -2 22 3 0 30 44 72 69 64 11 -3 23 -1 27 6 5 9 10 5 16 -10 7 -19 2 -31 -27 -62z m-360 -252 c34 -35 51 -77 32 -77 -7 0 -5 -5 3 -10 11 -7 4 -10 -28 -10 -56 0 -109 -23 -152 -65 l-36 -35 -18 25 c-10 14 -27 25 -37 25 -11 0 -19 4 -19 9 0 5 -8 11 -19 14 -12 3 -20 16 -23 38 -7 48 24 75 96 84 30 4 53 11 51 16 -10 16 31 29 74 24 32 -4 52 -14 76 -38z m386 -100 c-7 -7 -12 -5 -17 7 -4 11 -1 21 7 27 17 11 26 -18 10 -34z m-226 -127 c-3 -5 -1 -10 6 -10 7 0 10 -3 6 -6 -9 -9 -28 6 -22 17 4 5 8 9 11 9 3 0 2 -4 -1 -10z m-382 -97 c-9 -60 -22 -88 -34 -76 -15 15 17 113 37 113 1 0 0 -17 -3 -37z m337 -3 c0 -19 -18 -19 -23 -1 -3 14 -1 18 9 14 8 -3 14 -9 14 -13z m-44 -98 c17 -26 29 -162 15 -162 -6 0 -11 8 -11 18 0 14 -2 15 -10 2 -8 -12 -10 -11 -10 6 0 14 -11 27 -32 38 -41 19 -95 62 -88 69 3 3 25 8 50 11 24 3 48 12 52 21 12 20 21 19 34 -3z m-259 -154 c-28 -7 -42 -7 -50 1 -8 8 2 11 39 10 l49 -1 -38 -10z m33 -78 c0 -5 -6 -10 -14 -10 -8 0 -21 -3 -30 -6 -9 -3 -16 -1 -16 6 0 6 4 9 8 6 4 -2 14 -1 22 5 20 12 30 11 30 -1z m0 -29 c0 -5 -7 -12 -16 -15 -24 -9 -28 -7 -14 9 14 17 30 20 30 6z m1056 -194 c8 3 14 -1 14 -10 0 -8 11 -18 24 -21 13 -3 31 -17 40 -32 17 -25 17 -25 -2 -15 -10 5 -24 17 -32 25 -7 9 -25 16 -40 16 -37 0 -57 24 -39 47 13 15 14 15 17 0 2 -9 9 -14 18 -10z m-376 3 c0 -5 -5 -10 -11 -10 -5 0 -7 5 -4 10 3 6 8 10 11 10 2 0 4 -4 4 -10z m-303 -77 c12 -5 12 -7 1 -14 -10 -7 -9 -9 5 -9 10 0 15 -5 12 -10 -4 -6 -11 -8 -16 -4 -5 3 -18 -5 -29 -18 -11 -13 -19 -18 -20 -11 0 6 5 15 10 18 6 3 10 14 10 24 0 14 -6 17 -25 13 -14 -2 -22 -8 -19 -13 3 -5 -2 -9 -10 -9 -9 0 -16 -5 -16 -11 0 -6 8 -9 18 -7 12 4 18 -1 18 -13 0 -11 -4 -19 -8 -19 -4 0 -8 -8 -8 -17 -1 -12 -6 -7 -15 12 -11 24 -14 26 -14 10 -1 -14 -4 -16 -9 -7 -5 7 -4 33 2 58 l11 46 44 -7 c24 -4 50 -9 58 -12z m-167 -11 c0 -15 -7 -19 -34 -18 -41 2 -62 16 -23 16 14 0 29 5 32 10 10 16 25 11 25 -8z m890 -14 c0 -10 5 -17 11 -15 15 3 30 -50 23 -79 -3 -13 -13 -24 -22 -26 -15 -3 -111 19 -121 28 -2 2 -5 25 -7 52 l-3 48 34 -2 c19 -2 37 1 40 6 10 16 45 7 45 -12z m-645 -38 c3 -6 -1 -7 -9 -4 -18 7 -21 14 -7 14 6 0 13 -4 16 -10z m-220 -11 c11 -16 1 -19 -13 -3 -7 8 -8 14 -3 14 5 0 13 -5 16 -11z m-181 -10 c20 -10 29 -9 42 2 16 13 16 12 4 -8 -18 -28 -80 -22 -80 8 0 12 4 11 34 -2z m121 -19 c3 -5 2 -10 -4 -10 -5 0 -13 5 -16 10 -3 6 -2 10 4 10 5 0 13 -4 16 -10z m45 0 c0 -5 -4 -10 -10 -10 -5 0 -10 5 -10 10 0 6 5 10 10 10 6 0 10 -4 10 -10z m-473 -42 c-3 -7 -5 -2 -5 12 0 14 2 19 5 13 2 -7 2 -19 0 -25z m297 0 c-4 -7 -9 -21 -9 -31 -1 -9 -10 -23 -20 -31 -10 -7 -15 -18 -11 -24 3 -6 2 -13 -4 -17 -5 -3 -7 -19 -4 -34 4 -16 2 -37 -4 -47 -7 -13 -5 -22 9 -38 11 -11 19 -25 18 -30 0 -6 -3 -5 -6 2 -2 6 -13 12 -24 12 -10 0 -19 6 -19 13 -1 6 -3 28 -6 49 -3 22 0 47 10 65 12 25 13 30 1 30 -9 0 -18 -17 -24 -41 l-9 -41 -1 48 c-1 26 3 47 8 47 5 0 11 9 14 21 4 14 10 18 19 14 10 -6 11 -5 1 6 -20 20 -15 30 11 25 14 -3 30 2 37 10 14 17 25 11 13 -8z m76 1 c0 -6 -4 -7 -10 -4 -5 3 -10 11 -10 16 0 6 5 7 10 4 6 -3 10 -11 10 -16z m177 15 c-3 -3 -12 -4 -19 -1 -8 3 -5 6 6 6 11 1 17 -2 13 -5z m-197 -34 c0 -5 -2 -10 -4 -10 -3 0 -8 5 -11 10 -3 6 -1 10 4 10 6 0 11 -4 11 -10z m121 -10 c6 0 8 -4 5 -9 -8 -12 -46 -2 -46 11 0 6 7 7 16 4 9 -3 20 -6 25 -6z m-147 -11 c-4 -8 1 -9 17 -5 20 6 21 5 6 -4 -19 -12 -41 -4 -32 11 4 5 8 9 11 9 3 0 2 -5 -2 -11z m-22 -36 c-10 -4 -9 -8 5 -19 20 -15 6 -19 -16 -5 -15 10 -7 31 12 30 8 0 8 -2 -1 -6z m178 -8 c14 -16 10 -18 -14 -9 -9 3 -16 10 -16 15 0 14 16 11 30 -6z m-80 -9 c0 -8 -4 -18 -10 -21 -5 -3 -10 3 -10 14 0 12 5 21 10 21 6 0 10 -6 10 -14z m109 -12 c-6 -8 -17 -14 -23 -13 -7 0 -6 2 2 6 6 2 12 11 12 19 0 9 5 12 10 9 8 -5 7 -11 -1 -21z m256 -34 c-3 -5 -14 -10 -23 -9 -14 0 -13 2 3 9 27 11 27 11 20 0z m-390 -60 c3 -5 2 -10 -4 -10 -5 0 -13 5 -16 10 -3 6 -2 10 4 10 5 0 13 -4 16 -10z m385 -10 c0 -5 -4 -10 -10 -10 -5 0 -10 5 -10 10 0 6 5 10 10 10 6 0 10 -4 10 -10z m-550 -16 c0 -8 -4 -12 -10 -9 -5 3 -10 10 -10 16 0 5 5 9 10 9 6 0 10 -7 10 -16z m540 -20 c0 -9 -22 -48 -42 -74 -12 -14 -19 -19 -18 -10 5 35 1 43 -15 30 -19 -16 -32 -5 -17 13 7 8 9 17 5 20 -12 13 13 7 26 -5 11 -11 13 -10 8 5 -6 15 -3 17 13 12 11 -4 20 -2 20 4 0 6 5 11 10 11 6 0 10 -3 10 -6z m-736 -43 c-2 -3 -12 3 -22 13 -16 17 -16 18 5 5 12 -7 20 -15 17 -18z m272 -10 c-4 -6 -13 -11 -19 -11 -8 0 -7 3 2 9 8 5 10 14 6 22 -6 11 -5 11 5 2 7 -6 9 -16 6 -22z m319 22 c-11 -3 -23 -10 -27 -17 -5 -7 -8 -5 -8 7 0 12 7 17 28 16 21 -1 22 -2 7 -6z m-697 -28 c-6 -14 -13 -23 -15 -21 -5 5 15 46 22 46 3 0 -1 -11 -7 -25z m332 -10 c0 -5 -5 -3 -10 5 -5 8 -10 20 -10 25 0 6 5 3 10 -5 5 -8 10 -19 10 -25z m-267 10 c-3 -9 -8 -14 -10 -11 -3 3 -2 9 2 15 9 16 15 13 8 -4z m92 -8 c14 -11 15 -16 5 -22 -8 -5 -11 -4 -7 2 4 6 0 13 -8 16 -10 5 -16 -4 -21 -29 -3 -19 -12 -38 -19 -42 -6 -4 -17 -16 -23 -27 -6 -11 -12 -14 -12 -7 0 6 -10 22 -21 33 -16 16 -18 23 -9 29 7 4 10 12 6 18 -3 6 1 9 10 8 8 -1 19 -8 23 -15 6 -9 11 -9 20 2 6 8 11 19 10 23 -5 28 16 32 46 11z m109 -37 c8 -8 7 -15 -2 -28 -6 -9 -21 -33 -32 -53 -22 -42 -120 -110 -120 -84 0 8 5 15 11 15 6 0 9 10 8 23 -4 30 10 69 22 62 5 -3 6 0 3 8 -3 8 1 21 8 28 8 8 17 22 21 32 5 14 14 17 38 13 18 -2 37 -10 43 -16z m544 -12 c14 -17 18 -50 9 -65 -11 -17 -68 -17 -64 0 1 6 7 15 12 20 6 4 4 11 -5 17 -13 9 -7 14 13 11 4 0 7 6 7 14 0 18 14 19 28 3z m56 -87 c-5 -5 -30 -20 -55 -34 -34 -18 -46 -21 -46 -11 0 8 10 14 21 15 12 0 15 3 9 6 -19 7 -16 21 5 25 33 8 75 7 66 -1z"
       id="path1270" />
    <path
       d="M736 546 c-13 -20 -13 -24 -2 -20 8 3 17 13 20 21 10 26 0 25 -18 -1z"
       id="path1272" />
    <path
       d="M625 220 c-3 -5 -1 -10 4 -10 6 0 11 5 11 10 0 6 -2 10 -4 10 -3 0 -8 -4 -11 -10z"
       id="path1274" />
    <path
       d="M1186 185 c-3 -8 -1 -15 4 -15 6 0 10 7 10 15 0 8 -2 15 -4 15 -2 0 -6 -7 -10 -15z"
       id="path1276" />
    <path
       d="M1153 2323 c9 -2 23 -2 30 0 6 3 -1 5 -18 5 -16 0 -22 -2 -12 -5z"
       id="path1278" />
    <path
       d="M1350 2000 c0 -5 5 -10 11 -10 5 0 7 5 4 10 -3 6 -8 10 -11 10 -2 0 -4 -4 -4 -10z"
       id="path1280" />
    <path
       d="M1539 1871 c8 -5 9 -10 2 -12 -7 -3 -7 -9 -1 -19 8 -12 13 -13 28 -3 15 9 22 9 31 0 8 -8 11 -8 11 0 0 7 -10 15 -21 18 -17 6 -19 9 -8 16 10 6 3 9 -21 9 -24 0 -31 -3 -21 -9z"
       id="path1282" />
    <path
       d="M1610 1871 c0 -9 24 -21 43 -21 6 0 2 7 -9 15 -22 17 -34 19 -34 6z"
       id="path1284" />
    <path
       d="M1631 1602 c13 -10 42 -31 64 -47 34 -24 36 -25 15 -4 -29 29 -85 69 -95 69 -4 0 3 -8 16 -18z"
       id="path1286" />
    <path
       d="M1640 1080 c0 -5 7 -10 15 -10 8 0 15 5 15 10 0 6 -7 10 -15 10 -8 0 -15 -4 -15 -10z"
       id="path1288" />
    <path
       d="M990 400 c0 -5 7 -10 16 -10 8 0 12 5 9 10 -3 6 -10 10 -16 10 -5 0 -9 -4 -9 -10z"
       id="path1290" />
    <path
       d="M1071 364 c0 -11 3 -14 6 -6 3 7 2 16 -1 19 -3 4 -6 -2 -5 -13z"
       id="path1292" />
    <path
       d="M980 360 c0 -5 5 -10 11 -10 5 0 7 5 4 10 -3 6 -8 10 -11 10 -2 0 -4 -4 -4 -10z"
       id="path1294" />
    <path
       d="M1444 352 c-10 -15 -8 -18 7 -19 10 -1 21 2 24 8 4 5 1 9 -5 9 -6 0 -8 5 -5 10 3 6 2 10 -2 10 -5 0 -13 -8 -19 -18z"
       id="path1296" />
    <path
       d="M1456 295 c-9 -13 -44 -43 -78 -66 -58 -40 -61 -43 -40 -52 22 -10 22 -10 -10 -39 -17 -15 -27 -28 -22 -28 5 0 27 16 49 35 22 19 33 32 24 29 -10 -3 -20 -1 -23 4 -3 6 23 31 59 57 42 30 65 53 65 66 0 25 -4 24 -24 -6z"
       id="path1298" />
    <path
       d="M278 270 c-3 -16 -1 -30 4 -30 4 0 8 14 8 30 0 17 -2 30 -4 30 -2 0 -6 -13 -8 -30z"
       id="path1300" />
    <path
       d="M1350 281 c0 -6 4 -13 10 -16 6 -3 7 1 4 9 -7 18 -14 21 -14 7z"
       id="path1302" />
    <path
       d="M801 224 c0 -11 3 -14 6 -6 3 7 2 16 -1 19 -3 4 -6 -2 -5 -13z"
       id="path1304" />
    <path
       d="M1314 225 c-25 -19 -14 -19 22 0 16 8 22 15 13 15 -8 0 -24 -7 -35 -15z"
       id="path1306" />
    <path
       d="M830 206 c0 -9 5 -16 11 -16 5 0 8 -4 5 -9 -3 -4 6 -13 19 -19 22 -10 23 -9 16 10 -4 12 -18 28 -29 36 -20 13 -22 13 -22 -2z"
       id="path1308" />
    <path
       d="M910 170 c0 -5 7 -10 15 -10 8 0 15 -5 15 -11 0 -5 5 -7 10 -4 20 12 10 35 -15 35 -14 0 -25 -4 -25 -10z"
       id="path1310" />
    <path
       d="M1065 141 c-5 -15 -60 -45 -77 -42 -12 2 -9 -14 7 -35 16 -22 20 -38 6 -29 -6 3 -9 -4 -8 -15 2 -32 34 -24 46 11 14 40 14 59 1 59 -5 0 -10 -8 -10 -17 0 -15 -2 -16 -10 -3 -14 22 -12 30 8 30 10 0 27 7 38 15 22 16 38 20 29 6 -3 -5 -1 -12 5 -16 5 -3 10 -1 10 4 0 6 7 11 15 11 27 0 16 15 -20 26 -29 9 -35 8 -40 -5z"
       id="path1312" />
    <path
       d="M1400 143 c-13 -15 -12 -16 4 -10 10 4 20 7 22 7 2 0 4 5 4 10 0 15 -13 12 -30 -7z"
       id="path1314" />
    <path
       d="M1380 99 c-36 -22 -78 -54 -95 -71 -37 -38 -20 -29 65 34 36 26 74 54 85 62 37 27 11 15 -55 -25z"
       id="path1316" />
    <path
       d="M1890 51 c0 -22 -4 -41 -10 -43 -5 -2 24 -4 65 -5 l75 -2 0 44 c0 25 -4 45 -10 45 -5 0 -10 -4 -10 -10 0 -5 -18 -10 -40 -10 -22 0 -40 5 -40 10 0 6 -7 10 -15 10 -11 0 -15 -11 -15 -39z"
       id="path1318" />
    <path
       d="M1581 24 c0 -11 3 -14 6 -6 3 7 2 16 -1 19 -3 4 -6 -2 -5 -13z"
       id="path1320" />
    <path
       d="M1805 20 c-3 -5 3 -10 14 -10 12 0 21 5 21 10 0 6 -6 10 -14 10 -8 0 -18 -4 -21 -10z"
       id="path1322" />
  </g>
</svg>
